<svg xmlns="http://www.w3.org/2000/svg" xmlns:xlink="http://www.w3.org/1999/xlink" x="0px" y="0px"
	 viewBox="0 0 605.8 202" style="enable-background:new 0 0 605.8 202;" xml:space="preserve">
<g id="IRC">
	<g id="_x3C_group_x3E_">
		<path class="st0" d="M197.5,157c-0.3-0.4-3.9-1.5-8.2-2.2c-4.4-0.7-10.2,0.4-10.2,0.4c-1.2,0.2,2.6,1.1,3.3,1.4
			c0.7,0.3-1.3-0.1,5.4,3.1c6.7,3.3,7.8,1.9,9.7,0.9C199.4,159.8,197.8,157.4,197.5,157z M195.9,160.4c0,0-1.1,0.3-2.5,0.2
			c-1.5-0.1-3.3-0.4-3.7-0.5c-0.9-0.1-0.1-0.8-0.1-0.8s2.6,0,2.9-0.1c0.3-0.1-0.1-0.7,0.2-1.3c0,0,2.9,0.1,3.2,1.2
			C196.2,160.2,195.9,160.4,195.9,160.4z"/>
		<path class="st0" d="M179.9,158.1c-1-0.7-5.2-1.7-5.5-1.8c-1.7-0.4-4.1-0.6-5.2-0.7c-1.1-0.1-2.5-0.2-4.2-0.1
			c-1.7,0.1-1.9,0.9-1.9,0.9c-0.5,0.7,0.2,0.7,0.5,1c0.3,0.3,6,3.9,7.4,4.6c1.3,0.7,3.8,1.1,5,1.1c1.2,0,3.2-0.5,4.6-1.5
			C182.1,160.6,180.8,158.7,179.9,158.1z M178.4,161.4c-0.4,0.2-4.8,0.2-5.3,0.1c-0.5-0.1-2.8-1.8-2.8-1.8c0.8-0.1,4.5-0.2,4.8-0.3
			c0.3-0.1-0.5-0.6-0.6-0.9c-0.1-0.3,1.1-0.1,1.7,0.2C176.8,159.1,178.8,161.2,178.4,161.4z"/>
		<path class="st0" d="M167.2,161.5c-0.3-0.3-1.7-0.9-2.3-1.1c-0.6-0.2-1.9-0.6-3.1-1.3c-1.3-0.7-2.1-0.9-2.7-1.3
			c-0.7-0.3-1.6-0.8-2.4-1c-0.8-0.2-2.7,0.2-2.7,0.2c-1,1.1,0.8,2.6,1,2.9c0.2,0.3,3,2.5,3.3,2.9c0.3,0.3,2.9,1.5,3.2,1.6
			c0.3,0.1,2,0.3,2.5,0.3c0.5,0,1.4-0.1,1.7-0.3c0.3-0.1,1.1-0.5,1.5-0.7C167.8,163.6,167.5,161.8,167.2,161.5z M165.1,163.5
			c-0.3,0.1-2.5,0.1-2.9,0.1c-0.3,0-1.8-0.5-2.3-0.9c-0.3-0.2-0.1-0.7-0.1-0.7c0.5-0.2,2.9,0.4,2.9,0.4l-0.3-0.5l-0.1-0.5
			c0,0,0.3-0.1,1.2,0.3S165.4,163.4,165.1,163.5z"/>
		<path class="st0" d="M155.9,162.9c-0.2-0.5-2.7-3-3.3-3.3s-2.9-2.3-3.9-2.7c-0.9-0.3-3.2-1.4-4.5-1.4c0,0-0.9,0.1-1,0.5
			c-0.1,0.3-0.1,1.3,0.2,1.6c0.3,0.3,1.1,1.3,1.4,1.7c0.3,0.4,0.8,1.7,0.9,2.1c0.1,0.4,1.5,2.3,1.9,2.6c0.4,0.3,2.8,1.8,4.3,1.9
			c1.5,0.1,2.8-0.4,3.1-0.7C155.5,164.8,156.1,163.4,155.9,162.9z M146.5,159.2c0,0-0.7-0.5,0.1-0.5c2.5,0,2.7,0.9,2.3,1.5
			C148.5,160.8,146.5,159.2,146.5,159.2z M152.3,164.8c0,0-5.5-2.2-4.3-3.1l1.5,0.3c0,0,1.7,0.7,2,0.3c0.3-0.4,0.5-1,0.5-1l0.9,1
			l0.5,2.3L152.3,164.8z"/>
		<path class="st0" d="M141,156.2c-1.5-1.4-2.1-1.8-2.4-1.9c0,0-1.7-0.6-2.4-0.5c-0.7,0.1-1.1,1.2-1.1,1.5s0,2.7-0.1,3.1
			c-0.1,0.4-0.3,2.5-0.5,2.8c-0.2,0.3-0.3,2.1-0.2,2.5c0.1,0.4,0.9,2.2,2.2,2.6c1.3,0.4,3,0.4,3.9,0.1c0.9-0.3,2.6-2.1,3-3.6
			S142.4,157.6,141,156.2z M136.7,157.5c0.2,0.1,1.7,1.3,2.1,1.3c0.4-0.1,1-1.3,1-1.3l0.5,0.7c0,0-0.4,2.1-1,2.4s-2.9-1.5-2.9-1.5
			L136.7,157.5z M141.6,162c-0.5,2.1-2.2,3.1-2.2,3.1l-3.6-1.9l-0.1-1.8c0.4,0.1,3.7,1.1,3.7,1.1l1.2-2.1
			C140.6,160.4,142,159.8,141.6,162z"/>
		<path class="st0" d="M127.7,153.3c0,0-3.6,0-4.3,0.3c-0.7,0.3-6.6,2.5-7.3,3.1c-0.7,0.6-2.8,2.4-3.4,3.9c-0.6,1.5-0.6,3.9,0.2,4.6
			c0.8,0.7,3.3,1.1,4.7,0.4c1.4-0.7,4.3-4.1,4.8-5.1c0.5-1,3.6-5.7,4.2-6c0.6-0.3,0.9-0.9,1.1-0.9
			C128,153.6,128.1,153.5,127.7,153.3z M120,162c-0.2,0.5-3.5,1.7-4.3,1.7s-1.1-1.9-1.2-2.1c-0.1-0.3,1.2-1.5,1.2-1.5l0.5,0.1
			l-0.2,2.1l2.8-1C118.8,161.3,120.2,161.6,120,162z M122.3,158.4c-0.5,0.4-1.2,0.7-1.5,0.8c-0.5,0.1-2.5,0.3-2.7,0
			c-0.1-0.3,1.2-2.2,1.2-2.2s0.6-0.1,0.8-0.1h0.2l-0.4,1.3l1.9-0.7h1C122.9,157.4,122.8,157.9,122.3,158.4z"/>
		<path class="st0" d="M115.7,152.9c0,0-3.6,0.1-5.2,0.5c-1.7,0.4-4.6,2.1-5.7,2.6c-0.9,0.4-3.2,1.5-3.7,2.2
			c-0.5,0.7-2.2,3.1-1.1,4.8c1.1,1.7,3.7,2.7,5.5,2.2c1.2-0.3,3.1-1.4,5.3-3.9c1.1-1.2,2.2-3.3,3.4-4.8c1.8-2.3,2.1-3,2.1-3
			S116.2,153,115.7,152.9z M106,162.7c-0.6,0.1-3.3,0.5-3.5,0.1c-0.2-0.4,0.1-2.8,0.1-2.8l1.2-0.5h0.3l0.3,1.9l3.7-0.4
			c0,0,0.8-0.2,0.8,0.1C108.9,161.5,106.6,162.6,106,162.7z M110.2,158.6c0,0-2.9,0.4-3.4,0.4c-0.5,0,0-1.5,0-1.5l1.3-1.3h0.4
			l0.4,1.3h2.9L110.2,158.6z"/>
		<path class="st0" d="M103.1,153.6c-0.5,0-9,1.7-10.2,2c-1.1,0.3-3.9,2-4.1,2.7c-0.3,0.7-1.6,3.1,0.1,3.9c1.7,0.9,3.3,0.5,3.7,0.3
			c0.5-0.1,3.3-1.6,3.6-1.9c0.3-0.3,5.4-4.9,5.8-5.3C102.5,154.9,104.1,153.5,103.1,153.6z M93.9,160.6c-0.9,0-3.4,0.2-3.4,0
			s-1.4-1.1,1.1-2.3l0.1,1.1l3.9,0.1C95.5,159.5,94.7,160.6,93.9,160.6z"/>
		<path class="st0" d="M91.7,188.1c-0.8-3-7.3-8.3-12.3-9.9c-5-1.6-8.3-1.5-9.4-1.4c0,0,5.9,3.6,7.7,5c1.8,1.5,5.5,4.9,6.2,5.9
			c0.7,1,3.1,3.3,3.9,3.4C88.8,191.3,92.5,191.1,91.7,188.1z M81.4,182.8c-0.3,0-0.6-0.1-1-0.2c-0.9-0.2-0.8-0.4-0.8-0.5
			c0-0.1,0.1-0.3,0.1-0.3l0.7-0.1l-0.3-0.5l0-0.5c1.2-0.2,2.5,1.9,2.4,2.1C82.4,182.8,81.9,182.9,81.4,182.8z M89.9,189.5
			c-0.1,0,0,0.2-0.7,0.1c-0.4,0-0.8-0.2-1.1-0.2c-0.9-0.1-1.8-0.6-2.6-1.2c-0.6-0.5-1.1-1.1-1.1-1.1s-0.1-0.4,0.2-0.4
			c0.1,0,0.4-0.1,0.6-0.1c0.5,0.1,1.2,0.4,1.3,0.4c0.2,0.1,0.2-0.1,0.3-0.2c0.1-0.1,0.1-0.5-0.2-0.7c-0.2-0.2,0-1.3,0-1.3
			s0.5,0,0.7,0c0.2,0,1.7,1.7,1.9,2.1C89.6,187.4,90,189.4,89.9,189.5z"/>
		<path class="st0" d="M83.1,191.7c-0.8-1.5-5.2-8-10.8-10.4c-5.5-2.4-6.3-2-7-2.1c0,0-2.5,0-2,1.5c0.2,0.5,0.5,1,1,1.5
			c0.7,0.6,1.7,1.1,2.7,2c1,0.9,2.5,3.3,3.5,7.3c0.4,1.6,1,3.2,2.1,4.4c1.6,1.7,4.1,2.8,6.4,2.4C83.2,197.5,83.9,193.3,83.1,191.7z
			 M71.3,187.1l-1.9-2c0.2-0.2,2.6,0,2.6,0l0.4-1.1l1.4,0.8c0,0,0.6,3.1,0.2,2.7C73.5,187.1,71.3,187.1,71.3,187.1z M79.4,195.8
			c-0.1-0.7-6.1-2-6.1-2l-0.3-2.9c1,0,4.2,0.7,4.2,0.7l0.3-2.5l2.4,1.5C79.8,190.5,79.4,196.4,79.4,195.8z"/>
		<path class="st0" d="M23.6,153.9c-1.7-0.4-5.1-0.9-8-3c-2.9-2-9.4-4.2-10.6-3.9c-1.2,0.3-5.3,2-4.4,5.4c0.9,3.3,4,4.3,4.4,4.4
			c0.4,0.2,10.2,2.9,16.6,1.6c6.5-1.3,11.3-3.1,11.5-3.8C33.1,154.6,25.3,154.3,23.6,153.9z M7.3,152.5c0.3,0.5,1.9,4,2.3,4.3
			c0.4,0.3-2.4-0.4-2.8-0.7c-0.4-0.3-3.3-4.7-2.5-5.5c0,0,2.3-1.2,3.3-1c1,0.2,2.2,0.9,2.7,1.1C10.7,150.9,7,152,7.3,152.5z
			 M18.2,157.7c-0.4,0-0.6,0.2-0.9,0.2c-0.3,0-2.7-2.2-2.4-2.4c0,0,1.9-1.4,2.3-1.4c0.4,0,1.5,0.2,1.9,0.2c0.3,0-0.9,0.9-0.8,1.4
			c0.2,0.4,0.6,0.8,1,1.3C19.7,157.5,18.6,157.7,18.2,157.7z"/>
		<path class="st0" d="M25,160c-1.4,0-8.3,0.5-9.7,0.3c-0.7-0.1-5.7-0.3-7.2-1c-0.5-0.2-6.5-2.9-7.9,1c-1.2,3.4,1.4,4.6,3,5.3
			c1.6,0.7,6.9,1,9.4,0.6c2-0.3,7.3-1.6,10.3-2.7c0.9-0.3,2.3-0.9,2.6-1.1c1.8-1,4.6-2.6,5.2-3.5C30.8,158.9,26.4,160,25,160z
			 M6.1,162.6c-0.3,0.1,1.2,2.3,1.2,2.3s-2-0.1-2.3-0.2c-0.3-0.1-2.5-3.4-2.5-3.4c0.4-0.2,2.4-0.6,3.1-0.6s2.7,0.7,2.6,0.9
			C8.1,161.9,6.5,162.5,6.1,162.6z M15.4,164.6c-0.3,0-2.7-1.5-2.7-1.5c0.3-0.3,2.6-0.7,2.6-0.7h0.9v0.3l-0.3,0.5l0.7,0.7
			C16.6,164,15.7,164.6,15.4,164.6z"/>
		<path class="st0" d="M236.1,152.7c0,0-3.4-0.2-8.8,1c-6,1.3-15.6,1.1-18.6,0.9c-2.6-0.2-7.1-1.1-11.3-2c-4.2-0.9-8.5-2.2-11.6-2.9
			c-5.6-1.3-18.3-1.8-21.9-2.4c-3.6-0.6-21.3-0.4-27.8,0.2c-6.6,0.6-22.8,0.9-27.3,0.9c-4.5,0-20,0.1-20,0.1s-1-1-3.3-2.6
			c-2.2-1.4-3.8-2.2-4.5-2.8c-0.3-0.3-0.8-0.3-1-0.7c-0.6-0.8-0.5-1.9-1-2.8c-3.2-6-7-6.8-8.8-7.4c-1.8-0.6-6.7,0.7-8.3-2
			c-1.5-2.6-0.2-15.8,0.7-19.1c0.4-1.6,1.4-7.1,2.2-12.7c0.8-5.7,1.3-11.3,1.9-13.8c1.1-4.9,0.5-13.7-0.4-17.6
			c-0.9-3.9-7.8-19.3-9.7-23.5c-2.6-5.7-13-24.1-13-24.1S36.2,6.3,29.6,1.8c-6.6-4.5-7.4,0.9-7.4,0.9S21.4,5,23.7,7.9
			c0.8,0.9,2.3,1.9,5.1,3.6c5.8,3.6,12,10.5,16.2,17.2c5.8,9.1,6.9,19.1,8,23.6c1.6,6.2,1.3,12.8,1.9,17.3c0.3,2,2.2,4.5,3.4,7.8
			c1.1,3.3,1.6,8.3,1.7,13.7c0,4-1,12.3-2.1,20.5c-1.2,9-3.8,16.3-5.8,18c-2.7,2.3-10.5,8.2-13.2,16.5c-2.7,8.4-4.4,19.5-6.4,21.6
			c-0.8,0.8-2,1.7-3.6,2.2c-1.8,0.6-4.2,0.5-6.5,0.3c0.9-0.5,1.6-0.9,1.9-1.1c1.2-0.6,8.9-5.5,6.3-6.1c0,0-2.7,0.5-4.8,1.2
			c-2,0.7-3.8,1.3-4.6,1.5c-0.8,0.3-5.3,1.5-6.6,1.7c-1.3,0.2-6.4,0.7-8,0.8c-1.6,0.1-4.4,2.3-4.4,3c-0.1,0.7-0.7,3.2,2.3,4.6
			c3,1.5,4.9,1,7.3,0.2c1-0.4,3.3-1.6,5.7-3c0.3-0.1,0.6-0.2,1-0.2c0.8-0.2,2.7,0.6,4.3,1.7c-0.3,0-0.6,0.1-1,0.2
			c0,0-9.8,2.7-10.2,4.4c-0.4,1.6-1,4.7,1,5.8c2.1,1.1,6.8,0.3,8.3-1.2c1.4-1.4,4.5-4.8,4.8-5.2c0.1,0.4,0.2,0.8,0.3,1.2
			c0.1,0.3,0.1,0.7,0.1,1c-2,2.4-3.7,4.5-4,4.8c-0.5,0.7-0.9,5.4,2.7,6.6c5.1,1.6,7.3-2,8-2.8c0.7-0.8,1.6-5.8,2.1-7.4
			c0.1-0.4,0.2-1,0.4-1.7c0.1,0.1,0.2,0.1,0.3,0.2c1,0.6,1.9,1.5,2.2,2.3c0,0,0,0,0,0c-0.7,2.4-1.5,4.9-1.9,6.1
			c-0.9,2.5,0.1,5.8,1.5,7c1.4,1.2,4,1,4.9,0.9c0.8-0.1,2.7-1.6,4.1-6c0.1-0.5,0.2-1,0.3-1.5c0.5,0,0.9,0.1,1.4,0.1
			c-0.2,1.5-0.9,8.4,0.8,9.7c1.9,1.5,5.5,1.7,6.3,1.5c0.9-0.3,2-1.5,2.6-3.2c0.3-0.8,0.4-2.3-0.1-3.8c0.8,0,1.5-0.6,1.5-0.6
			s0.4-1.2-0.2-1.9c-0.4-0.6-1.6-0.8-1.6-1.3c0-0.7,1-0.7,1.9-0.5c0.6,1.4,0.9,3.1,0.9,5.7c-0.1,5.5,3.1,7.3,5.4,7.2
			c2.3-0.2,4.1-3,4.2-6.2c0.1-3.2-2-10.1-8-13.3c-2.2-1.2-2.9-0.9-3.5-1c-1.1-0.2-1.7,0.1-1.7,0.1s-1.4,0.9,0.4,3.7
			c0.1,0.2,0.2,0.3,0.3,0.5c-1.4-0.2-2.8-0.5-3.6-0.8c-1.3-0.4-1.4-0.8-1.5-1.8c0-0.6,0.9-1.5,1.2-1.8c0.9-0.6,12.5-4.8,12.5-4.8
			s9.3-4,15.3-12.6c6-8.7,9.8-11.1,24.1-12.2c12.5-0.9,32.2-0.5,36.4,1.2c2.8,1.2,10.3,2.5,11.5,2.5c0.8,0,2.1-0.4,5.6-1
			c1.2-0.2,2.9-0.4,4.6-0.7c7.9-1.4,16.8-1.3,23.9-0.4c7.9,1,13.7,2.7,14.6,3.1c1.8,0.6,30.1,5.5,34.9,1.3
			C241.9,153.4,236.1,152.7,236.1,152.7z M9.8,175.2c-0.3,0-5.4-1.1-5.4-1.6c0-0.5,1.4-2.5,1.7-2.8l2.5-0.3L7.5,173l3.2,0.8l0.8,0.1
			C11.5,173.9,10.1,175.2,9.8,175.2z M59.5,152c0.1,1.2,1.1-0.3,1.3-0.4c0.1-0.1,0.6-0.9,0.8-0.5c0.2,0.4-0.4,1.8-0.8,2.2
			c-0.4,0.3-2.9,2.2-3.2,2.2c-0.3,0-0.8-4.8-0.3-5.4c0,0,1,0,1.7,0.4C59.4,150.8,59.5,151.6,59.5,152z M54.7,150.7
			c0.4,0.2,0.5,1.9,0.6,2.1c0,0,0.1-0.1,0.7-0.3c0.8-0.3,0.9,0.2,0.3,1.1c-0.7,0.9-2,1.5-2,1.5s0,0-0.4-1.9
			c-0.4-1.9,0.2-2.8,0.2-2.8C54.7,150.4,54.3,150.5,54.7,150.7z M54.3,147.6c0-0.7,0.6-2,0.6-2c0.5,0,0.5,0,0.6,0.1
			c0.1,0,0.1,0.6,0.2,1c0,0.4,0.3,0.6,0.3,0.6s0.3-0.3,0.7-0.4c2.5-0.8,1.2,1.4-0.7,2.4C54,150.5,54.3,148.4,54.3,147.6z M56,155.2
			c0.7-0.3,0.6,1.1,0.7,1.6c0,0.5,0.1,0.3,1-0.7c0.9-1,1.6-0.1,1.4,0.3c-0.3,0.5-3,3.7-3.2,3.5c-0.2-0.2-1.2-2.8-1.3-3.3
			S56,155.2,56,155.2z M55.8,136.4c0.4-0.6,2.8-1.1,2.8-1.1v-0.1c0.7,0-0.2,1.2-1.2,2.2c-1,1-1.5,1-2,0.8
			C55,137.9,55.4,137,55.8,136.4z M54.2,137.7c0.5,0.1,0.1,1.2,0.2,1.6c0.1,0.4,0.6,0.3,0.9,0.3c0.6-0.1,0.7-0.7,1.2-0.5
			c0.5,0.1-0.3,1.9-2,2.8c-1.4,0.8-1.2,0.9-1.6-1.1C52.6,138.8,54.2,137.7,54.2,137.7z M51.5,142.8c0.7-0.9,1,0.5,0.9,1.1
			c0,0.6,0.8,0,0.8,0s0.7-1.4,1.9-1.3c1.8,0.1-1.1,2.9-2.4,3.9c-1.3,1-1.4,0.9-1.6-0.2C50.9,144.8,51.5,142.8,51.5,142.8z
			 M47.7,174.4c0,0,4.1,1,4.6,1.3c0.4,0.3,1.2,1.2,0.4,1.7c-0.8,0.5-2.2,0.2-2.8,0c-0.5-0.2-1.3-0.7-1.1-0.7c0.2,0,0.9-0.1,1-0.1
			c0.2-0.1-0.9-0.4-1.3-0.6C48.2,175.7,47,174.1,47.7,174.4z M47,175c3.2,7.6,1.1,8.5,1.1,8.5l-1.7,0.9c-0.5-2.7-1.3-5-1.5-5.5
			c-0.3-0.9-3.2-4.4-3.7-4.7c-0.5-0.3-1.9-0.3-1.9-0.3c-0.5,0.3-0.6,1.1-0.4,2.8c0,0.4,0,1-0.2,1.9c-0.3-0.2-0.6-0.5-1-0.7
			c-0.7-0.5-1.3-0.9-1.9-1.3c0.2-1.5,0.3-2.8,0.3-3.3c0-1-0.2-1.5-0.9-1.7c-0.7-0.2-2.7,2-2.7,2c-0.1,0-0.1,0.1-0.2,0.2
			c-1.1-1.7,0.9-2.9,0.9-2.9s3.8-1.5,8,0C43,171.4,46,172.6,47,175z M44.3,182v1.4c0,0-1.9,2-2.1,2c-0.3,0-2.1-2.2-2.1-2.2l0.8-0.9
			c0.6,0.3,1.4,0.9,1.4,0.9l1.6-1.5L44.3,182z M42.3,169.8c0.1,0.3,0,0.7-0.6,0.4c-0.6-0.3-3.2-0.9-3.3-1c-0.1-0.1-0.6-2.6,0.2-2.1
			C38.7,167.2,42.2,169.5,42.3,169.8z M41.7,168c0,0.2-0.4,0.6-1.1-0.1c-0.7-0.7-1.5-1.7-2.1-1.8c-0.6-0.1-0.7,0.5-0.7,0.7
			c0,0.2-0.6,0.6-0.4-2.2c0-0.7,0.4-0.3,0.4-0.3s0.9,0.6,1.8,1.6C40.4,166.9,41.7,167.8,41.7,168z M37.3,159.9
			c0.8-0.2,0.5,1.4,1,2.1c0.5,0.7,1.4,3,0.9,2.7c-0.5-0.3-1.8-1.8-2.1-2c-0.3-0.1-0.8,0.8-1.3,0.5C35.3,163,37.3,159.9,37.3,159.9z
			 M35.1,164.5c0.3-0.2-0.1-0.3,0.7-0.2c0.8,0.1,1,1.7,1.1,2.1c0.1,0.4,0.8,2.3,0.5,2.8s-0.7-0.6-1.1-1.3c-0.4-0.7-1-1.2-1.3-1
			c-0.3,0.2-0.7,1.1-1.2,0.8C33.3,167.3,35.1,164.5,35.1,164.5z M19.4,182.8c-1,1-3.2,0.8-3.9,0.8c-0.8,0-2.7-1.2-2.7-1.2
			s0.4-1.8,0.9-2.6c0.4-0.8,2.7-1.2,2.7-1.2l0.1-0.3l-0.5,2.6c0,0,0.8,0.5,1.6,0.8C18.7,182.1,20,182.2,19.4,182.8z M23.4,178.8
			c-0.4,0.2-3.3,0.3-3.2,0c0.1-0.3,0.6-2.5,2.6-3.6l0.2,1.6l1.4-0.1l0.1,0.7C24.5,177.5,23.8,178.7,23.4,178.8z M30.7,189.2
			c-0.2,0.2-4.7,0.2-5.3,0.8c-0.6,0.5-2.1-2.9-1.9-3.3c0.2-0.4,1.4-1.5,2-1.9c0,0,1,3,1.4,2.9c0.4-0.1,4.9-0.3,4.9-0.3
			S31,189,30.7,189.2z M32.8,182.5c-1,0.5-3.4,1.5-3.6,0.9c-0.2-0.5-0.4-3.2-0.1-3.4c0.3-0.2,0.6-0.2,0.9-0.6c0,0,0.3,0.9,0.5,1.5
			c0.2,0.5,0.9,0.2,1.3,0c0.4-0.3,1.5-0.4,1.5-0.4S33.8,182,32.8,182.5z M35.9,180.1c-0.1-0.1-0.3-0.2-0.6-0.3
			c-1.2-0.6-3.5-1.4-3.8-1.4c-0.4-0.1-1.6-0.3-2.2-0.1c-0.5,0.2-2.6,3.3-2.6,3.3l-0.4-0.1c0,0-0.1-0.1,0.1-0.5
			c0.1-0.1,0.1-0.4,0-0.8c-0.1-0.9-0.4-2.3-0.6-2.7c-0.1-0.2-0.3-0.5-0.5-0.8c-0.4-0.6-0.9-1.4-1.3-1.6c-0.2-0.1-0.5-0.3-0.9-0.6
			c0,0,0,0,0,0c-0.9-0.6-2.1-1.3-2.7-1.6c-0.8-0.3-1.6-0.4-2.2-0.4c-0.1,0-0.2,0-0.4,0c-0.6,0.1-2.1,0.8-2.1,0.8s-0.1,0.1-0.2-0.3
			c-0.1-0.4,1-1.9,1.6-2.3c0.6-0.4,1.7-0.4,2.4-0.4c0.2,0,1.2,0,2.3,0.1c1.9,0.1,4.3,0.3,4.6,0.3c0.4,0,1.5,0.1,2.9-0.4
			s3.2-2.1,3.2-2.1c0.4,0.2,0.1,1.2,0.5,1.2c0.3-0.1,1.7-0.2,1.7-0.2s0.4,0.3,0.1,0.3c-0.3,0-2.1,1.3-2.5,1.6
			c-0.4,0.4-0.5,1.7-0.5,2.2c0,0.1,0.1,0.3,0.3,0.5c0.5,0.6,1.6,1.3,2.1,1.8c0.2,0.2,0.9,0.7,1.6,1.3v0c0.9,0.7,2,1.6,2.8,2.2
			c0.5,0.4,0.8,0.6,0.9,0.7c0.4,0.3,0.7,1.6,0.2,2.2c-0.5,0.6-1.3,1.2-1.3,1.2s-0.3-0.1-0.2-0.2c0.1-0.2-0.2-0.8-0.3-1.2
			c0,0,0,0,0,0C37.8,181.5,36.8,180.6,35.9,180.1z M40.8,194.6c-0.4,0.2-2.7-1.2-3.6-3.2l0.9-0.3l2.1,1.7l3.3-1l0.5,0.7
			C44.1,192.4,41.2,194.5,40.8,194.6z M56.8,195.8c-0.3,0.5-3.8,2.3-4.2,2.1c-0.3-0.2-3.1-2.7-3.2-3.1c-0.2-0.3,0.6-2.5,0.6-2.5
			c0.2,0.6,3.3,3.4,3.6,3.3c0.3-0.1,2.8-1.8,3.1-1.6C56.9,194.3,57.1,195.3,56.8,195.8z M65.2,195.9l1.9-3.2c0,0,0.4,2.2,0.4,2.8
			s-1.9,4.3-1.9,3.9c0-0.3-3.9-2.3-3.9-2.3v-2.9h0.2C62.7,194.4,65.2,195.9,65.2,195.9z M52.6,185.2c0.3,0,3.7,0.9,4.4,1
			c0.2,0,0.4,0,0.6,0.1c0.8,0.1,1.9,0.2,3,0.4c1.5,0.2,2.6,1.3,2.9,1.6c0.3,0.2,0.2,3.1-0.1,3.6c-0.2,0.5-0.4,0.1-0.4-0.5
			c0-0.6-1.7-2.1-2.6-2.5c-0.5-0.2-0.9-0.2-1.4-0.1c-0.4,0-0.8,0.1-1.2,0.2c-0.8,0.1-1.2,0-1.5,0.5c-0.3,0.5,1.1,1.2,1.3,1.4
			s0.8,1.2,0.4,1.8c-0.2,0.4-0.6,0.5-0.8,0.6c0,0-0.1,0-0.1,0c0,0,0-0.2-0.4-0.8c-0.7-1-4.2-2.4-5.3-2.8c-1.1-0.3-1.8-0.4-3.4-0.8
			c-0.2,0-0.4-0.1-0.6-0.1c-0.3,0-0.6-0.1-0.9-0.1c-1.4,0-3,0.2-3.8,0.4c-1,0.2-3.1,0.4-3.9,0.9c-0.8,0.5-0.8,0.2-0.9-0.1
			c-0.1-0.3,0.5-0.9,0.9-1.1s3.8-2,4.1-2c0.3-0.1,0.5-0.2,2.7-1c0.2-0.1,0.5-0.2,0.7-0.3c1.7-0.9,2.7-2.6,2.8-2.9l-0.1,0.2
			c0-0.1-0.1-0.7,0-0.6c0.4,0.1,2.9,0,2.9,0s-0.4,0.4-0.7,0.9C50.8,184.2,52.3,185.1,52.6,185.2z M54.5,179.4
			c-0.4,0.4-1,1.1-1.6,1.1c-0.6,0-0.8-0.1-0.8-0.1s0.8-1,0.5-1c-0.3,0-2-0.1-2.5,0c-0.5,0-1.4-0.1-0.8-0.4c0,0,3.2-0.9,4-0.8
			C54.1,178.3,54.9,179,54.5,179.4z M57.6,178.6c-0.6,0.2-2.3,0.4-2.3,0.4c-0.2-0.1-0.3-0.3,0-0.5c0.3-0.2,0.7-0.3,0.6-0.4
			c-0.3-0.2-2.8-1.1-1.8-1.3c0,0,3.4,0.1,3.8,0.5C58.2,177.7,57.9,178.5,57.6,178.6z M61.9,177.1c-1,0.1-2.6,1.1-3.1,1.2
			c-0.5,0.1,0-1.2,0-1.2V177c0.4,0,3.3-0.3,3.9-0.3S62.9,177,61.9,177.1z M61.2,143.9c0.1-0.6,0.8-6,0.8-6l1.5,0.4
			c0,0,0.4,0.1,2.8,2.4c2.4,2.2,2,4,0.8,4.9c-0.9,0.7-2.4,0.9-3.3,0.9C61.7,146.2,61.1,144.5,61.2,143.9z M69,157.4
			c0-0.2-0.1-0.7-0.2-1.5c-0.1-0.8-1.3-3.7-1.7-4.1c-0.4-0.4-1.7-1.6-2-2.5c-0.3-0.9,0.1-1.2,0.5-1.4c0.3-0.2,2.6-2.1,3.1-2.6
			c0.5-0.5,2.4-1.2,3-1.2c0.7,0,1.3,0.6,1.6,0.8c0.3,0.2,0.3-0.2,0.5-0.3c0.2-0.1,2.9-2.7,2.9-2.7c0.3-0.1,0.3,0,0.5,0.7
			c0.2,0.6-0.3,4.1-0.5,4.4c-0.2,0.4-1,0.4-1.3,0.5c-0.3,0.1-0.6,0-0.5,0.7c0.1,0.7-0.5,3.1-0.5,3.4c0,0.3-0.6,1.4-0.9,1.4
			c-0.3,0-0.2-0.4-0.3-0.6c-0.1-0.2-0.3-0.1-0.6,0.2c-0.3,0.3-2,2.9-2.6,3.9C69.4,157.5,69,157.6,69,157.4z M73.9,157.5
			c-0.1,0.3-1.2,2.1-2,2.9c-0.7,0.8-0.5-0.6-0.2-1c0.3-0.4,0.2-1.2,0.5-2.9c0.2-1.6,0.9-1.9,0.9-1.9C73.7,155.1,74,157.2,73.9,157.5
			z M75.5,155.7c-0.7,0.9-1,1.1-1.1,0.6c-0.1-0.5-0.9-2.5-0.9-2.5c0.4-0.6,1.6,0.1,1.8-0.1c0.2-0.3,2.1-2.3,2.5-2.1
			C78.1,151.8,76.2,154.8,75.5,155.7z M78.4,149.9c0.1,1.5-0.5,0.7-1,0c-0.6-0.6-0.4-1-0.1-2c0.3-1,1.8-3.4,1.8-3.4
			c0.4,0.3-0.1,1.6-0.2,2C78.8,146.8,78.3,148.3,78.4,149.9z M80.6,149.4c-0.5,0-1.3-1.9-1.4-2.6c-0.1-0.8,0.5-2.2,0.5-2.2
			c0.6,0.1,0.6,1.6,1.1,2.2c0.5,0.6,1.5,1.1,1.4,1.4C82.1,148.5,81.1,149.5,80.6,149.4z"/>
		<path class="st0" d="M62.6,138.6c0,0-1.2,5.8,0.3,6.6c1.6,0.8,3.5,0.3,3.9-0.3C67.2,144.3,67.3,140.6,62.6,138.6z M66.5,144.5
			c-0.2,0.2-1.8,0.6-3.1-0.4c-1.2-1-0.3-4-0.3-4C65.8,140.8,66.7,144.3,66.5,144.5z"/>
		<path class="st0" d="M71.5,152.5c-0.8,1-2.2,0.5-2.7,0c-0.4-0.4-2.6-2.8-2.6-2.8s-0.7-1.2-0.1-1.2c1.1,0.1,1.7-0.2,2.4-0.4
			c1.3-0.4,2.2-0.9,2.2-0.9c0.2,0.4-0.2,0.5-0.5,0.6c-0.2,0.1-0.3,0.7,0,1.2c0.2,0.3,1.5,1.1,1.9,1.4S72.3,151.5,71.5,152.5z"/>
		<path class="st0" d="M76.4,144.3c-0.2,0-1.8,1.5-1.8,1.8s-0.3,0.5-0.3,0.3c0-0.2-0.2-0.4-0.4-0.7c-0.2-0.3-0.3-0.4,0.1-0.5
			c0.4-0.1,2.4-2.1,2.4-2.1C76.9,143.4,76.6,144.3,76.4,144.3z"/>
		<path class="st0" d="M45.2,32.9c-0.3-1.1-6.5-9.8-7.7-10.8c-1.2-1-5.7-5.5-7.9-7.2s-4.8-2-5.8-2c-0.9,0-2.6,0.4-3.2,1.6
			c-0.3,0.7-0.7,1.2-1,1.9c-1.1,3.5,2.9,5.8,3.8,6.3c1.1,0.5,8.5,4.1,9.7,4.5c1.2,0.4,9.4,7.4,9.7,8.1c0.3,0.7,2.4,1.1,2.9,0.6
			C46.2,35.5,45.4,34,45.2,32.9z M28.4,22.9c-0.2,0.5-3.2-0.9-3.8-1.1c-0.5-0.2-2.2-4.3-2.5-4.6c-0.3-0.3,2.3-1.5,2.3-1.5
			c1.6,0.2,1.4,0.2,2.3,0.5s0.9,0.8,0.8,1.2c-0.1,0.4-1.5,0.8-1.5,0.8S28.6,22.3,28.4,22.9z M37,27.7c0,0-1.4,0.4-2.4-4.2
			c0,0,2.1-0.5,2.6-0.1s1.2,2,1.2,2l-1.6,0.1L37,27.7z"/>
		<path class="st0" d="M48.8,45c-0.1-0.4-5.1-6.9-6.1-7.9c-1.3-1.3-7.2-6.1-8-6.5c-0.8-0.4-4.9-3-7.7-3.9c-2.8-0.9-5,0.3-5,0.3
			c-4.4,3.9,0.5,9,6.2,9.5c5.6,0.5,6.7,1.8,9.1,2.6s10.1,8,10.2,8.4c0.1,0.4,0.8,1.2,1.6,0.8C49.9,47.9,48.9,45.4,48.8,45z
			 M27.6,34.8c-1.2-0.4-4.4-4.5-4.4-4.9c0-0.3,2.5-0.8,2.5-0.8c1.6,0.1,2.9,0.8,2.9,0.8s-0.9,0.4-1.3,0.5s3.5,4.6,3.5,4.6
			S28.8,35.3,27.6,34.8z M38.4,38.5c-0.2-0.4-1.1-1.5-0.5-2.1l2.6,0.3c0,0-0.9,0.5-0.7,0.9c0.2,0.3,0.8,1.5,0.8,1.5
			S38.6,38.9,38.4,38.5z"/>
		<path class="st0" d="M48.8,51.9c-0.5-0.2-6.8-6.8-9.3-8.4c-2.5-1.6-9.9-4.9-11.3-5c-1.4-0.1-3.8-0.3-5.5,0.4c0,0-1.6,1.2-1.6,3
			c-0.1,1.8,0.8,4.3,1.7,5.1s2.9,2.1,3.9,2.2c1,0.1,6.8,0.1,7.9,0.2c1.1,0.1,7.2,2.1,7.9,2.5c0.7,0.4,5.8,3.4,6.2,3.9s2,1.7,2.2,0.5
			S49.3,52.1,48.8,51.9z M33,47.3c-0.3,0.2-2.7-0.2-3.7-0.4c-1-0.2-4.5-3.3-5-3.8s2.6-2,2.6-2c2-0.1,4,0.4,4.2,0.9
			c0.2,0.4-0.3,0.3-0.6,0.4c-0.3,0.1-0.5,1.1-0.9,1.4C29.4,44.1,33.3,47.1,33,47.3z M40,49.8c-0.4-0.1-2.3-2.5-2.6-2.8
			c-0.3-0.3,1.6-1.2,1.6-1.2c1.1-0.1,2.3,0.7,2.3,0.7L41.2,47l-1,0.4l1.5,2.3C41.7,49.7,40.4,49.9,40,49.8z"/>
		<path class="st0" d="M48.7,58.6c-1.3-1.1-5.3-4.2-7.3-5c-2.5-1-8.9-2.1-8.9-2.1s-4.6-1.1-6.7,2.4c-2.1,3.5,1.6,5.1,2.3,5.2
			c0.7,0.1,4.1-0.1,4.9-0.2s4.3-0.1,5.5,0.1c1.3,0.2,3.3,1.1,4.1,1.4c0.8,0.3,3.9,1.9,4.2,2.1c0.3,0.2-0.2-0.3,2.2,1.4
			c2.5,1.8,2.6-0.1,2.6-0.6C51.6,62.7,49.6,59.3,48.7,58.6z M33.2,57.4c-2.2,0-4.7-1.5-5-1.9c-0.2-0.4,1.1-1.9,1.1-1.9l1.2-0.2
			c1.3-0.2,2.3,0.9,2.3,0.9l-1.2,0.8c0,0,0.1,0.7,0.8,1.3C33,56.8,33.8,57.4,33.2,57.4z M43.7,57.1l-1,0.2c0,0,1.2,2.3,0.8,1.8
			c-0.4-0.4-0.9-0.3-1.9-0.7C40.4,58.2,40,57,40,57l1.8-1.1c0.8,0,1.9,0.5,1.9,0.5L43.7,57.1z"/>
		<path class="st0" d="M53.1,69.3c-0.5-0.3-5.1-3.8-5.9-4.3c-0.8-0.4-5.1-3.1-6.3-3.5c-1.2-0.3-6.3-1.2-7.9-1
			c-1.6,0.2-1.5,0.1-2.2,0.3c0,0-2.2,1.6-2.2,2.4c0,0.8-0.2,2.1,0.6,2.9c0.8,0.8,1.8,1.6,4,1.9c2.1,0.3,6.7,0.1,7.4,0.1
			c0.8,0,6.7,0.6,7.7,0.8c0.9,0.2,2.5,0.8,3.5,1.1c0.9,0.3,1.6,0.6,1.9,0.5S53.6,69.6,53.1,69.3z M34.1,66.8c-0.5-0.1-3.2-1-2.5-1.7
			c0.8-0.8,2.2-1.7,2.9-2.1h1.7l-0.1,0.6l-1.3,1.2c0,0,2.8,1.3,3,1.7C38.1,66.9,34.6,66.9,34.1,66.8z M42.2,65.3
			c0.2-1.1,0.6-0.4,1-0.5c0,0,1.4,0.3,1.7,0.5c0.3,0.2-0.2,0.8,0,1.1c0.2,0.3,0.3,0.9,0.5,1.1C45.6,67.6,41.8,66.9,42.2,65.3z"/>
		<path class="st0" d="M53.4,73.4c-1.2-1-4.5-3-12.9-3.3c0,0-5.3-0.9-7.7,0.9c-2.4,1.8-0.7,4.1-0.4,4.5c0.2,0.3,3.2,3.3,9.9,3
			c6.6-0.2,10.2-1.4,11.2-2.3C54.6,75.3,54.7,74.3,53.4,73.4z M37.8,76.6c-0.5-0.2-4-1.7-3.8-2.3c0.2-0.5,2-2.6,2.5-2.6l0.1,0.3
			l2.7,0.7c0,0-1.4,1.3-1,1.6c0.4,0.3,2.4,1.5,2.5,1.9C40.9,76.7,38.3,76.8,37.8,76.6z M48.5,76.1c-1.5-0.1-4.4-0.5-4.2-1.4
			c0.2-0.9,2.5-1.6,2.5-1.6v-0.3c1.3,0,0,1.5,0,1.5S50,76.3,48.5,76.1z"/>
		<path class="st0" d="M56.1,78.4c-0.6-0.9-1.6-0.2-1.6-0.2s-1.2,0.2-2,0.7s-3.7,1.4-4.5,1.5c-0.8,0.1-2.1,0.4-3.5,0.4
			c-1.4-0.1-5.3,0-6.3-0.2s-3,0.2-3.1,1.1s-0.1,3.7,2.5,5.1c1.5,0.8,3,1.3,4.1,1.4c0.7,0,2.8,0.1,5.1-0.5c3.4-0.9,7.2-4,7.5-4.4
			C54.6,82.9,57,79.7,56.1,78.4z M40.5,86.4c-0.9-0.1-2.9-3.1-2.9-3.1c0-0.3,1.4-0.6,1.4-0.6s1.6-0.2,2-0.2c0.4,0,1.2,1.1,1.2,1.1
			l0,0.4l-0.9,0.1l0.2,0.4l1.6,1.7C43,86.4,41.4,86.5,40.5,86.4z M50.1,85.2c-0.4,0.2-2.1,0-2.3-0.1c-0.1-0.1-0.5-0.1-0.7-0.3
			c-0.2-0.2-0.2-0.5-0.2-0.7c0-0.4,2-1.8,2-1.8c0.2,0,0.2-0.1,0.4,0c0.2,0.1-0.2,1.6-0.2,1.6l1.7,0.3C50.9,84.1,50.4,85,50.1,85.2z"
			/>
		<path class="st0" d="M55.8,84.6c0,0-2.4,1.6-3,1.9c-0.6,0.3-2.5,1.4-3.1,1.6s-2.7,0.9-3.6,1c-0.9,0.1-4,0.5-4.7,0.6
			s-3.3,0.6-3.8,2.1c-0.5,1.6-0.5,2.8,0.1,3.6c0.6,0.8,1.9,2.4,5,2c3-0.4,6-1.8,6.8-2.5c0.8-0.6,4.5-4.4,5-5.5s1.7-3.9,1.8-4.5
			C56.4,84.4,56.3,84.6,55.8,84.6z M45.2,95.4c-1.9,1.1-1.9,0.6-2.3,0.6c-0.3-0.1-2.8-1.1-3.1-1.5c-0.2-0.4,1.6-2.3,1.6-2.3h0.4
			c0.7-0.4,2-0.6,2-0.6L44,92l-1.1,1.4l2.4,1.4C45.3,94.9,46.1,94.9,45.2,95.4z M50.9,92.1c-0.1,0.2-0.3,0.6-0.5,0.8
			c-0.2,0.3-1,0.1-1.7,0.2c-0.2,0-0.3,0.1-0.7-0.3l1.8-2.4c0.4-0.2,0.8,0.1,0.8,0.1L50,91.5l1.1,0.1C51.1,91.6,51,91.8,50.9,92.1z"
			/>
		<path class="st0" d="M57.5,92.5c-0.2-1.3,0.1-1-0.6-1c-0.6,0-0.9-0.1-1.6,0.5c-0.6,0.6-1.4,1.8-2.1,2.5c-0.7,0.6-1.8,1.7-2.9,2.4
			c-1.1,0.8-2.7,1.6-3.6,1.8s-4.7,1.2-5.3,1.5c-0.6,0.3-2.5,2.3-2.8,4.2c-0.3,1.9,1.1,4,2.2,4.4s3.3,0.4,4.6-0.5
			c1.4-0.9,4.5-3.7,5.3-4.4c0.8-0.7,3.6-4.5,4.8-6.4S57.6,93.9,57.5,92.5z M46,106.3c-0.2,0-4.7,0.1-4.6-0.3
			c0.1-0.4,1.2-3.7,1.5-3.9s0.8-0.2,1.1-0.4l1.6-0.1c0,0-0.3,0.6-0.6,1.2c-0.3,0.5-0.4,0.8-0.4,0.9c0.1,0.2,0.6,0.3,1,0.5
			c0.4,0.2,1.5,0.4,1.7,0.4s0.4,0.2,0.4,0.2S46.2,106.3,46,106.3z M53.6,98.8c-0.2,0.3-0.5,0.8-0.9,1.1c-0.5,0.5-1.3,0.8-1.8,0.8
			c-0.7,0-0.7,0-0.7-0.4c0-0.4,0.9-1.8,0.9-1.8l0.6-0.9h0.2c0.8-0.2,0.5,0.3,0.5,0.3l-0.1,0.6C52.4,98.6,54,98.1,53.6,98.8z"/>
		<path class="st0" d="M55.3,101.8c0,0-0.9,0.6-1.3,1.2c-0.4,0.6-2.7,2.5-3.1,3.3c-0.4,0.8-1.9,2.1-2.5,2.4c-0.6,0.4-3.1,1.8-4,2.1
			c-0.8,0.3-3.5,2.4-3.7,2.8s-1.8,3.1-0.3,4.3c1.5,1.1,2.1,1.2,2.6,1.1s2.5-0.1,4.2-1.5c1.7-1.4,4.6-4.5,5.1-5.5
			c0.5-1,3.1-4.8,3.8-9.1C56.4,101,55.3,101.8,55.3,101.8z M47.7,115.4c-0.2,0.3-1.5,1-1.8,1.1c-0.3,0.1-2.9,0.1-2.9,0.1
			s0.4-3.5,0.6-3.5c0.2-0.1,0.9-0.5,2-0.1c0,0-0.4,1.9-0.2,2c0.2,0.1,2.2,0.1,2.2,0.1S48,115.1,47.7,115.4z M51.8,110.8
			c-0.6,0.5-1.3,1-1.4,0.7c-0.2-0.3,0-1.8,0-1.8l1.2-1.1c0.5,0.2,0.1,1.1,0.1,1.1l0.8-0.1C52.4,109.7,52.4,110.3,51.8,110.8z"/>
		<path class="st0" d="M55.3,110.9c0,0-1.8,1.6-2.1,2.2c-0.3,0.6-1.4,2.2-1.6,2.6s-1.6,1.9-2.2,2.5c-0.6,0.6-1.8,1.6-2.5,1.9
			c-0.8,0.3-3.8,2.6-4,2.8s-1.6,2.3-1.8,3.1s-0.4,2.6-0.1,3.1c0.4,0.5,1.7,1.9,3,1.8c1.3-0.1,2.8-0.6,3.7-1.2
			c0.9-0.6,2.4-2.2,3.8-4.8c1.4-2.6,3-5.6,3.2-6.8s1.5-5.8,1.4-6.3C55.9,111.3,55.9,110.6,55.3,110.9z M48.9,125.8
			c-0.2,0.3-0.4,1-0.8,1.3c-0.7,0.6-1.7,0.7-1.7,0.7l-2.5,0.3l0.2-3.5c0.2-0.1,0.9-1.1,0.9-1.1l1.2-0.1l0.1,2.4l-0.1,0.2l1.8-0.6
			C48,125.4,49.5,124.9,48.9,125.8z M50.1,122.8c-0.3,0.2-1.5,0.6-1.8,0.6c-0.3,0-0.2-1.3-0.2-1.3l1.1-1.4c0.4,0,0.8,0,0.8,0
			l-0.1,0.8l1.3-0.2C51.2,121.3,50.4,122.6,50.1,122.8z"/>
		<path class="st0" d="M132.8,156.4c-0.1-1.7-0.2-2.8-0.8-2.7c0,0-3,1.2-3.3,1.3c-0.3,0.1-1.9,1.5-2.1,1.7c-0.3,0.3-2.3,2.9-2.4,3.2
			c-0.1,0.3-0.7,2.8-0.7,3.8s1.1,2.4,1.7,2.5c0.6,0.1,1.7,0.2,2.6,0c0.9-0.2,3.7-2.6,4-3.6C132.1,161.7,132.9,158.1,132.8,156.4z
			 M129.7,163.2c-0.6,0.7-3,1.9-3.5,2c-0.5,0.1-1.1-2.2-1.1-2.2l0.3-1.3l0.6-0.1c0.8,0.5,0.9,1.6,1.1,1.6c0.3,0,0.9-0.6,2.1-1.2
			C130.5,161.4,130.3,162.4,129.7,163.2z M129.2,160.4c-0.4,0.4-1.4,0.3-1.4,0.3v-2.3l0.8-0.2c0.4,0.3,0.1,0.9,0.1,0.9l1.5-0.7
			l1.1-0.3C131.3,158,129.6,160,129.2,160.4z"/>
	</g>
	<g>
		<g>
			<path class="st1" d="M104.6,133c-0.4,0-0.7,0-0.9,0c-0.3,0-0.5-0.1-0.7-0.2c-0.2-0.1-0.4-0.2-0.5-0.4c-0.1-0.1-0.2-0.3-0.2-0.5
				l-2.4-6.2c-0.3-0.7-0.6-1.3-0.9-1.9c-0.3-0.6-0.6-1-1-1.4c-0.4-0.4-0.8-0.7-1.4-0.9c-0.5-0.2-1.2-0.3-1.9-0.3h-2V132
				c0,0.2-0.1,0.4-0.2,0.5c-0.1,0.1-0.3,0.2-0.5,0.3c-0.1,0.1-0.3,0.1-0.6,0.1c-0.5,0.1-1.3,0.1-1.8,0c-0.3,0-0.5-0.1-0.6-0.1
				c-0.2-0.1-0.4-0.2-0.5-0.3c-0.1-0.1-0.1-0.3-0.1-0.5v-24.6c0-0.7,0.2-1.1,0.6-1.4c0.3-0.3,0.7-0.4,1.1-0.4h5.6
				c0.7,0,1.2,0,1.7,0.1c0.5,0,0.9,0.1,1.2,0.1c1.1,0.2,2,0.5,2.8,0.9c0.8,0.4,1.5,0.9,2.1,1.5c0.6,0.6,1,1.3,1.3,2.1
				c0.3,0.8,0.4,1.7,0.4,2.6c0,0.9-0.1,1.8-0.4,2.5c-0.3,0.7-0.6,1.4-1.1,2c-0.5,0.6-1,1.1-1.7,1.5c-0.4,0.3-0.9,0.5-1.4,0.7
				c0.2,0.1,0.4,0.2,0.5,0.4c0.4,0.3,0.7,0.7,1.1,1.1c0.3,0.4,0.6,0.9,0.9,1.5c0.3,0.5,0.6,1.2,0.8,1.8l2.4,5.8
				c0.2,0.5,0.3,0.9,0.4,1.1c0.1,0.2,0.1,0.4,0.1,0.6c0,0.2,0,0.3-0.1,0.5c-0.1,0.2-0.2,0.3-0.5,0.4c-0.2,0.1-0.4,0.1-0.7,0.1
				C105.4,133,105,133,104.6,133z M92.7,117.5h3.1c0.9,0,1.7-0.1,2.3-0.3c0.6-0.2,1.2-0.5,1.6-0.9c0.4-0.4,0.7-0.8,0.9-1.3
				c0.2-0.5,0.3-1.1,0.3-1.6c0-1-0.2-1.8-0.6-2.4c-0.4-0.6-1.1-1.1-2.1-1.4c-0.3-0.1-0.7-0.2-1.1-0.2c-0.4,0-1-0.1-1.7-0.1h-2.6
				V117.5z"/>
		</g>
		<g>
			<path class="st1" d="M129.1,132.9h-12.7c-0.4,0-0.8-0.1-1.1-0.4c-0.4-0.3-0.6-0.8-0.6-1.4v-23.7c0-0.7,0.2-1.1,0.6-1.4
				c0.3-0.3,0.7-0.4,1.1-0.4h12.6c0.2,0,0.3,0,0.5,0.1c0.2,0.1,0.3,0.2,0.4,0.4c0.1,0.1,0.1,0.3,0.2,0.5c0,0.2,0.1,0.5,0.1,0.8
				c0,0.3,0,0.5-0.1,0.7c0,0.2-0.1,0.4-0.2,0.5c-0.1,0.2-0.2,0.3-0.4,0.4c-0.1,0.1-0.3,0.1-0.5,0.1h-10v7.6h8.5
				c0.2,0,0.4,0.1,0.5,0.2c0.1,0.1,0.2,0.2,0.3,0.4c0.1,0.2,0.1,0.3,0.2,0.6c0,0.2,0,0.4,0,0.7c0,0.3,0,0.5,0,0.7
				c0,0.2-0.1,0.4-0.2,0.6c-0.1,0.2-0.2,0.3-0.4,0.4c-0.1,0.1-0.3,0.1-0.5,0.1h-8.5v8.7h10.1c0.2,0,0.3,0,0.5,0.1
				c0.1,0.1,0.3,0.2,0.4,0.4c0.1,0.2,0.2,0.4,0.2,0.6c0,0.2,0,0.4,0,0.7c0,0.3,0,0.5,0,0.7c0,0.2-0.1,0.4-0.2,0.6
				c-0.1,0.2-0.2,0.3-0.4,0.4C129.4,132.8,129.2,132.9,129.1,132.9z"/>
		</g>
		<g>
			<path class="st1" d="M149.8,133.3c-2.1,0-4-0.3-5.6-1c-1.7-0.7-3.1-1.6-4.2-2.8c-1.1-1.2-2-2.7-2.6-4.4c-0.6-1.7-0.9-3.6-0.9-5.6
				c0-2.1,0.3-4.1,1-5.9c0.6-1.7,1.6-3.3,2.8-4.5c1.2-1.2,2.6-2.2,4.3-2.9c1.7-0.7,3.5-1,5.5-1c1,0,2,0.1,2.9,0.3
				c0.9,0.2,1.7,0.4,2.4,0.6c0.7,0.2,1.3,0.5,1.8,0.8c0.5,0.3,0.8,0.5,1,0.7c0.2,0.2,0.4,0.5,0.5,0.8c0.1,0.3,0.1,0.6,0.1,1.1
				c0,0.3,0,0.5,0,0.7c0,0.2-0.1,0.4-0.1,0.6c-0.1,0.2-0.2,0.3-0.3,0.4c-0.4,0.2-0.7,0.2-1.5-0.3c-0.4-0.2-0.9-0.5-1.5-0.8
				c-0.6-0.3-1.4-0.6-2.2-0.8c-0.9-0.2-1.9-0.4-3.1-0.4c-1.4,0-2.7,0.3-3.8,0.8c-1.1,0.5-2.1,1.2-2.8,2.1c-0.8,0.9-1.4,2-1.8,3.2
				c-0.4,1.3-0.6,2.6-0.6,4.1c0,1.6,0.2,3.1,0.7,4.4c0.5,1.3,1.1,2.3,1.9,3.2c0.8,0.9,1.8,1.5,2.8,2c1.8,0.7,3.9,0.9,6.1,0.4
				c0.7-0.2,1.4-0.4,2.1-0.8v-7.1h-5.8c-0.4,0-0.7-0.2-0.9-0.6c-0.1-0.3-0.2-0.7-0.2-1.3c0-0.3,0-0.5,0-0.7c0-0.2,0.1-0.4,0.2-0.6
				c0.1-0.2,0.2-0.3,0.3-0.4c0.1-0.1,0.3-0.1,0.5-0.1h8.4c0.2,0,0.4,0,0.6,0.1c0.2,0.1,0.4,0.2,0.5,0.3c0.2,0.2,0.3,0.4,0.4,0.6
				c0.1,0.2,0.1,0.5,0.1,0.8v10.1c0,0.4-0.1,0.8-0.2,1.1c-0.2,0.3-0.5,0.6-1,0.9c-0.4,0.2-0.9,0.4-1.6,0.7c-0.6,0.2-1.3,0.4-2,0.6
				c-0.7,0.2-1.4,0.3-2.1,0.4C151.2,133.2,150.5,133.3,149.8,133.3z"/>
		</g>
		<g>
			<path class="st1" d="M170.1,133c-0.3,0-0.6,0-0.9-0.1c-0.3,0-0.5-0.1-0.6-0.1c-0.2-0.1-0.4-0.2-0.5-0.3c-0.1-0.1-0.1-0.3-0.1-0.5
				v-25.5c0-0.2,0.1-0.4,0.2-0.5c0.1-0.1,0.3-0.3,0.5-0.3c0.2-0.1,0.4-0.1,0.6-0.1c0.5-0.1,1.3-0.1,1.8,0c0.3,0,0.5,0.1,0.6,0.1
				c0.2,0.1,0.4,0.2,0.5,0.3c0.1,0.1,0.1,0.3,0.1,0.5V132c0,0.2,0,0.4-0.1,0.5c-0.1,0.2-0.3,0.3-0.5,0.3c-0.2,0.1-0.4,0.1-0.6,0.1
				C170.8,133,170.4,133,170.1,133z"/>
		</g>
		<g>
			<path class="st1" d="M192.4,133.3c-2,0-3.8-0.3-5.3-0.9c-1.5-0.6-2.8-1.5-3.8-2.7c-1-1.2-1.7-2.6-2.2-4.4
				c-0.5-1.7-0.7-3.7-0.7-5.9c0-2.1,0.3-4.1,0.8-5.8c0.5-1.8,1.3-3.3,2.3-4.5c1-1.2,2.4-2.2,3.9-2.9c1.6-0.7,3.4-1,5.5-1
				c2,0,3.8,0.3,5.2,0.9c1.5,0.6,2.8,1.5,3.8,2.7c1,1.2,1.7,2.6,2.2,4.3c0.5,1.7,0.7,3.6,0.7,5.8c0,2.2-0.3,4.2-0.8,5.9
				c-0.5,1.8-1.3,3.3-2.3,4.5c-1,1.3-2.4,2.2-3.9,2.9C196.3,132.9,194.5,133.3,192.4,133.3z M192.7,109c-1.5,0-2.7,0.3-3.7,0.8
				c-1,0.5-1.8,1.3-2.4,2.2c-0.6,0.9-1.1,2-1.3,3.2c-0.3,1.2-0.4,2.6-0.4,3.9c0,1.5,0.1,2.9,0.4,4.2c0.2,1.3,0.7,2.4,1.3,3.3
				c0.6,0.9,1.4,1.6,2.3,2.1c1,0.5,2.2,0.7,3.7,0.7c1.5,0,2.7-0.3,3.7-0.8c1-0.5,1.8-1.3,2.4-2.2c0.6-0.9,1.1-2,1.3-3.3
				c0.3-1.3,0.4-2.6,0.4-4c0-1.5-0.1-2.9-0.4-4.1c-0.3-1.2-0.7-2.3-1.3-3.2c-0.6-0.9-1.4-1.6-2.3-2.1
				C195.4,109.2,194.2,109,192.7,109z"/>
		</g>
		<g>
			<path class="st1" d="M215.3,133c-0.4,0-0.7,0-0.9-0.1c-0.3,0-0.5-0.1-0.6-0.1c-0.2-0.1-0.4-0.2-0.5-0.4c-0.1-0.2-0.1-0.3-0.1-0.5
				v-24.5c0-0.7,0.2-1.2,0.6-1.5c0.4-0.3,0.8-0.4,1.2-0.4h1.7c0.4,0,0.8,0,1.1,0.1c0.3,0.1,0.6,0.2,0.9,0.4c0.2,0.2,0.5,0.4,0.7,0.7
				c0.2,0.3,0.4,0.7,0.7,1.1l6.2,11.6c0.4,0.7,0.8,1.4,1.1,2.1c0.4,0.7,0.7,1.3,1,2c0.3,0.7,0.7,1.3,1,1.9c0.1,0.2,0.2,0.3,0.2,0.5
				c0-0.6,0-1.2,0-1.8c0-1.2,0-2.3,0-3.4v-14.4c0-0.2,0.1-0.3,0.2-0.5c0.1-0.1,0.2-0.3,0.4-0.3c0.2-0.1,0.4-0.1,0.6-0.2
				c0.4-0.1,1.3-0.1,1.8,0c0.3,0,0.5,0.1,0.7,0.2c0.2,0.1,0.3,0.2,0.4,0.3c0.1,0.1,0.2,0.3,0.2,0.5v24.5c0,0.3-0.1,0.6-0.2,0.9
				c-0.1,0.2-0.3,0.4-0.5,0.6c-0.2,0.2-0.4,0.3-0.6,0.3c-0.2,0.1-0.4,0.1-0.7,0.1h-1.2c-0.4,0-0.8,0-1.1-0.1
				c-0.3-0.1-0.6-0.2-0.9-0.5c-0.3-0.2-0.5-0.5-0.8-0.9c-0.3-0.4-0.5-0.8-0.8-1.4l-8.1-15.1c-0.4-0.8-0.9-1.6-1.3-2.5
				c-0.2-0.3-0.3-0.7-0.5-1c0,0.4,0,0.9,0,1.3c0,1,0,2,0,3.1v16c0,0.2,0,0.3-0.1,0.5c-0.1,0.2-0.3,0.3-0.5,0.4
				c-0.2,0.1-0.4,0.1-0.6,0.1C215.9,133,215.6,133,215.3,133z"/>
		</g>
		<g>
			<path class="st1" d="M262.4,133c-0.4,0-0.8,0-1,0c-0.3,0-0.5-0.1-0.7-0.1c-0.2-0.1-0.4-0.2-0.5-0.3c-0.1-0.1-0.2-0.2-0.2-0.4
				l-2.2-6.2h-10.5l-2.1,6.1c-0.1,0.2-0.1,0.3-0.2,0.4c-0.1,0.1-0.2,0.2-0.4,0.3c-0.2,0.1-0.4,0.1-0.7,0.2c-0.5,0.1-1.5,0.1-2,0
				c-0.3,0-0.6-0.1-0.7-0.3c-0.1-0.1-0.3-0.3-0.3-0.7c0-0.2,0.1-0.5,0.2-0.8l8.9-24.6c0.1-0.2,0.2-0.4,0.3-0.5
				c0.1-0.1,0.3-0.3,0.6-0.3c0.2-0.1,0.4-0.1,0.7-0.1c0.6,0,1.6,0,2.2,0c0.3,0,0.6,0.1,0.8,0.1c0.2,0.1,0.4,0.2,0.6,0.3
				c0.1,0.1,0.2,0.3,0.3,0.5l8.9,24.7c0.1,0.3,0.2,0.6,0.2,0.8c0,0.4-0.1,0.6-0.3,0.7c-0.2,0.1-0.4,0.2-0.7,0.3
				C263.2,133,262.8,133,262.4,133z M248.4,122.4h8.2l-4.1-11.7L248.4,122.4z"/>
		</g>
		<g>
			<path class="st1" d="M284.8,132.9h-11.7c-0.4,0-0.8-0.1-1.1-0.4c-0.4-0.3-0.6-0.8-0.6-1.4v-24.6c0-0.2,0-0.4,0.1-0.5
				c0.1-0.1,0.3-0.3,0.5-0.3c0.2-0.1,0.4-0.1,0.6-0.1c0.5-0.1,1.3-0.1,1.8,0c0.3,0,0.5,0.1,0.6,0.1c0.2,0.1,0.4,0.2,0.5,0.3
				c0.1,0.1,0.1,0.3,0.1,0.5v22.6h9.1c0.2,0,0.4,0.1,0.5,0.2c0.1,0.1,0.3,0.2,0.3,0.4c0.1,0.2,0.1,0.3,0.2,0.6c0,0.2,0,0.5,0,0.8
				c0,0.3,0,0.5,0,0.7c0,0.2-0.1,0.4-0.2,0.6c-0.1,0.2-0.2,0.3-0.3,0.4C285.2,132.8,285,132.9,284.8,132.9z"/>
		</g>
		<g>
			<path class="st1" d="M315.4,133.2c-1.8,0-3.4-0.3-4.8-0.9c-1.4-0.6-2.7-1.5-3.7-2.6c-1-1.2-1.8-2.6-2.3-4.3
				c-0.5-1.7-0.8-3.6-0.8-5.8c0-2.2,0.3-4.3,0.9-6c0.6-1.8,1.4-3.3,2.5-4.5c1.1-1.2,2.3-2.2,3.8-2.8c1.5-0.6,3.1-1,4.9-1
				c0.8,0,1.6,0.1,2.3,0.2c0.7,0.1,1.4,0.3,2.1,0.6c0.6,0.2,1.2,0.5,1.7,0.8c0.5,0.3,0.9,0.6,1.1,0.8c0.2,0.2,0.3,0.4,0.4,0.5
				c0.1,0.1,0.1,0.3,0.2,0.4c0,0.1,0.1,0.3,0.1,0.5c0,0.2,0,0.4,0,0.7c0,0.3,0,0.5,0,0.8c0,0.2-0.1,0.4-0.1,0.6
				c-0.1,0.2-0.2,0.3-0.3,0.4c-0.3,0.3-0.8,0.3-1.5-0.3c-0.3-0.3-0.8-0.5-1.3-0.9c-0.5-0.3-1.2-0.6-1.9-0.8
				c-0.7-0.3-1.6-0.4-2.7-0.4c-1.1,0-2.1,0.2-3.1,0.7c-0.9,0.4-1.7,1.1-2.3,2c-0.7,0.9-1.2,2-1.5,3.2c-0.4,1.3-0.6,2.8-0.6,4.4
				c0,1.6,0.2,3.1,0.5,4.4c0.3,1.2,0.9,2.3,1.5,3.1c0.6,0.8,1.4,1.4,2.4,1.9c0.9,0.4,2,0.6,3.2,0.6c1,0,1.9-0.1,2.7-0.4
				c0.8-0.3,1.4-0.5,1.9-0.8c0.5-0.3,1-0.6,1.3-0.8c0.7-0.5,1.2-0.6,1.5-0.3c0.1,0.1,0.3,0.2,0.3,0.4c0.1,0.1,0.1,0.3,0.1,0.6
				c0,0.2,0,0.5,0,0.8c0,0.2,0,0.4,0,0.6c0,0.2,0,0.4-0.1,0.5c0,0.2-0.1,0.3-0.2,0.4c-0.1,0.1-0.2,0.3-0.3,0.4
				c-0.2,0.2-0.5,0.4-0.9,0.7c-0.5,0.3-1,0.6-1.7,0.9c-0.7,0.3-1.5,0.5-2.3,0.7C317.4,133.1,316.4,133.2,315.4,133.2z"/>
		</g>
		<g>
			<path class="st1" d="M341.2,133.3c-2,0-3.8-0.3-5.3-0.9c-1.5-0.6-2.8-1.5-3.8-2.7c-1-1.2-1.7-2.6-2.2-4.4
				c-0.5-1.7-0.7-3.7-0.7-5.9c0-2.1,0.3-4.1,0.8-5.8c0.5-1.8,1.3-3.3,2.3-4.5c1-1.2,2.4-2.2,3.9-2.9c1.6-0.7,3.4-1,5.5-1
				c2,0,3.8,0.3,5.2,0.9c1.5,0.6,2.8,1.5,3.8,2.7c1,1.2,1.7,2.6,2.2,4.3c0.5,1.7,0.7,3.6,0.7,5.8c0,2.2-0.3,4.2-0.8,5.9
				c-0.5,1.8-1.3,3.3-2.3,4.5c-1,1.3-2.4,2.2-3.9,2.9C345.1,132.9,343.3,133.3,341.2,133.3z M341.6,109c-1.5,0-2.7,0.3-3.7,0.8
				c-1,0.5-1.8,1.3-2.4,2.2c-0.6,0.9-1.1,2-1.3,3.2c-0.3,1.2-0.4,2.6-0.4,3.9c0,1.5,0.1,2.9,0.4,4.2c0.2,1.3,0.7,2.4,1.3,3.3
				c0.6,0.9,1.4,1.6,2.3,2.1c1,0.5,2.2,0.7,3.7,0.7c1.5,0,2.7-0.3,3.7-0.8c1-0.5,1.8-1.3,2.4-2.2c0.6-0.9,1.1-2,1.3-3.3
				c0.3-1.3,0.4-2.6,0.4-4c0-1.5-0.1-2.9-0.4-4.1c-0.3-1.2-0.7-2.3-1.3-3.2c-0.6-0.9-1.4-1.6-2.3-2.1C344.3,109.2,343,109,341.6,109
				z"/>
		</g>
		<g>
			<path class="st1" d="M378.1,133c-0.4,0-0.7,0-0.9,0c-0.3,0-0.5-0.1-0.6-0.2c-0.2-0.1-0.4-0.2-0.5-0.4c-0.1-0.1-0.2-0.3-0.2-0.5
				l-2.4-6.2c-0.3-0.7-0.6-1.3-0.9-1.9c-0.3-0.6-0.6-1-1-1.4c-0.4-0.4-0.8-0.7-1.4-0.9c-0.5-0.2-1.2-0.3-1.9-0.3h-2V132
				c0,0.2-0.1,0.4-0.2,0.5c-0.1,0.1-0.3,0.3-0.5,0.3c-0.1,0.1-0.4,0.1-0.6,0.1c-0.5,0.1-1.3,0.1-1.8,0c-0.3,0-0.5-0.1-0.6-0.1
				c-0.2-0.1-0.4-0.2-0.5-0.3c-0.1-0.1-0.1-0.3-0.1-0.5v-24.6c0-0.7,0.2-1.1,0.6-1.4c0.3-0.3,0.7-0.4,1.1-0.4h5.6
				c0.7,0,1.2,0,1.7,0.1c0.5,0,0.9,0.1,1.2,0.1c1.1,0.2,2,0.5,2.8,0.9c0.8,0.4,1.5,0.9,2.1,1.5c0.6,0.6,1,1.3,1.3,2.1
				c0.3,0.8,0.4,1.7,0.4,2.6c0,0.9-0.1,1.8-0.4,2.5c-0.3,0.7-0.6,1.4-1.1,2c-0.5,0.6-1,1.1-1.7,1.5c-0.4,0.3-0.9,0.5-1.4,0.7
				c0.2,0.1,0.4,0.2,0.5,0.4c0.4,0.3,0.7,0.7,1.1,1.1c0.3,0.4,0.6,0.9,0.9,1.5c0.3,0.5,0.6,1.2,0.8,1.8l2.4,5.8
				c0.2,0.5,0.3,0.9,0.4,1.1c0.1,0.2,0.1,0.4,0.1,0.6c0,0.2,0,0.3-0.1,0.5c-0.1,0.2-0.2,0.3-0.5,0.4c-0.2,0.1-0.4,0.1-0.7,0.1
				C378.9,133,378.6,133,378.1,133z M366.2,117.5h3.1c0.9,0,1.7-0.1,2.3-0.3c0.6-0.2,1.2-0.5,1.6-0.9c0.4-0.4,0.7-0.8,0.9-1.3
				c0.2-0.5,0.3-1.1,0.3-1.6c0-1-0.2-1.8-0.6-2.4c-0.4-0.6-1.1-1.1-2.1-1.4c-0.3-0.1-0.7-0.2-1.1-0.2c-0.4,0-1-0.1-1.7-0.1h-2.6
				V117.5z"/>
		</g>
		<g>
			<path class="st1" d="M390.3,133c-0.4,0-0.7,0-0.9-0.1c-0.3,0-0.5-0.1-0.6-0.1c-0.2-0.1-0.4-0.2-0.5-0.3c-0.1-0.1-0.1-0.3-0.1-0.5
				v-24.5c0-0.7,0.2-1.2,0.6-1.5c0.4-0.3,0.8-0.4,1.2-0.4h5.7c0.6,0,1.1,0,1.7,0.1c0.5,0,1.2,0.2,1.9,0.3c0.8,0.2,1.5,0.5,2.3,0.9
				c0.8,0.5,1.5,1,2,1.7c0.5,0.7,1,1.4,1.3,2.3c0.3,0.9,0.4,1.8,0.4,2.9c0,1.4-0.2,2.6-0.7,3.7c-0.5,1.1-1.1,2.1-2,2.9
				c-0.8,0.8-1.9,1.4-3.1,1.8c-1.2,0.4-2.7,0.6-4.4,0.6h-2.6v9.2c0,0.2-0.1,0.4-0.2,0.5c-0.1,0.1-0.3,0.3-0.5,0.3
				c-0.1,0.1-0.4,0.1-0.6,0.1C391,133,390.7,133,390.3,133z M392.4,119.2h2.8c1,0,1.9-0.1,2.5-0.4c0.7-0.3,1.2-0.6,1.6-1.1
				c0.4-0.4,0.8-1,1-1.6c0.2-0.6,0.3-1.3,0.3-2.1c0-1-0.2-1.9-0.6-2.5c-0.4-0.7-0.8-1.2-1.4-1.5c-0.6-0.3-1.1-0.5-1.7-0.6
				c-0.6-0.1-1.2-0.1-1.8-0.1h-2.9V119.2z"/>
		</g>
		<g>
			<path class="st1" d="M423.8,133.3c-2,0-3.8-0.3-5.3-0.9c-1.5-0.6-2.8-1.5-3.8-2.7c-1-1.2-1.7-2.6-2.2-4.4
				c-0.5-1.7-0.7-3.7-0.7-5.9c0-2.1,0.3-4.1,0.8-5.8c0.5-1.8,1.3-3.3,2.3-4.5c1-1.2,2.4-2.2,3.9-2.9c1.6-0.7,3.4-1,5.5-1
				c2,0,3.8,0.3,5.2,0.9c1.5,0.6,2.8,1.5,3.8,2.7c1,1.2,1.7,2.6,2.2,4.3c0.5,1.7,0.7,3.6,0.7,5.8c0,2.2-0.3,4.2-0.8,5.9
				c-0.5,1.8-1.3,3.3-2.3,4.5c-1,1.3-2.4,2.2-3.9,2.9C427.7,132.9,425.8,133.3,423.8,133.3z M424.1,109c-1.5,0-2.7,0.3-3.7,0.8
				c-1,0.5-1.8,1.3-2.4,2.2c-0.6,0.9-1.1,2-1.3,3.2c-0.3,1.2-0.4,2.6-0.4,3.9c0,1.5,0.1,2.9,0.4,4.2c0.2,1.3,0.7,2.4,1.3,3.3
				c0.6,0.9,1.4,1.6,2.3,2.1c1,0.5,2.2,0.7,3.7,0.7c1.5,0,2.7-0.3,3.7-0.8c1-0.5,1.8-1.3,2.4-2.2c0.6-0.9,1.1-2,1.3-3.3
				c0.3-1.3,0.4-2.6,0.4-4c0-1.5-0.1-2.9-0.4-4.1c-0.3-1.2-0.7-2.3-1.3-3.2c-0.6-0.9-1.4-1.6-2.3-2.1
				C426.8,109.2,425.5,109,424.1,109z"/>
		</g>
		<g>
			<path class="st1" d="M460.7,133c-0.4,0-0.7,0-0.9,0c-0.3,0-0.5-0.1-0.6-0.2c-0.2-0.1-0.4-0.2-0.5-0.4c-0.1-0.1-0.2-0.3-0.2-0.5
				l-2.4-6.2c-0.3-0.7-0.6-1.3-0.9-1.9c-0.3-0.6-0.6-1-1-1.4c-0.4-0.4-0.8-0.7-1.4-0.9c-0.5-0.2-1.2-0.3-1.9-0.3h-2V132
				c0,0.2-0.1,0.4-0.2,0.5c-0.1,0.1-0.3,0.3-0.5,0.3c-0.1,0.1-0.4,0.1-0.6,0.1c-0.5,0.1-1.3,0.1-1.8,0c-0.3,0-0.5-0.1-0.6-0.1
				c-0.2-0.1-0.4-0.2-0.5-0.3c-0.1-0.1-0.1-0.3-0.1-0.5v-24.6c0-0.7,0.2-1.1,0.6-1.4c0.3-0.3,0.7-0.4,1.1-0.4h5.6
				c0.7,0,1.2,0,1.7,0.1c0.5,0,0.9,0.1,1.2,0.1c1.1,0.2,2,0.5,2.8,0.9c0.8,0.4,1.5,0.9,2.1,1.5c0.6,0.6,1,1.3,1.3,2.1
				c0.3,0.8,0.4,1.7,0.4,2.6c0,0.9-0.1,1.8-0.4,2.5c-0.3,0.7-0.6,1.4-1.1,2c-0.5,0.6-1,1.1-1.7,1.5c-0.4,0.3-0.9,0.5-1.4,0.7
				c0.2,0.1,0.4,0.2,0.5,0.4c0.4,0.3,0.7,0.7,1.1,1.1c0.3,0.4,0.6,0.9,0.9,1.5c0.3,0.5,0.6,1.2,0.8,1.8l2.4,5.8
				c0.2,0.5,0.3,0.9,0.4,1.1c0.1,0.2,0.1,0.4,0.1,0.6c0,0.2,0,0.3-0.1,0.5c-0.1,0.2-0.2,0.3-0.5,0.4c-0.2,0.1-0.4,0.1-0.7,0.1
				C461.4,133,461.1,133,460.7,133z M448.8,117.5h3.1c0.9,0,1.7-0.1,2.3-0.3c0.6-0.2,1.2-0.5,1.6-0.9c0.4-0.4,0.7-0.8,0.9-1.3
				c0.2-0.5,0.3-1.1,0.3-1.6c0-1-0.2-1.8-0.6-2.4c-0.4-0.6-1.1-1.1-2.1-1.4c-0.3-0.1-0.7-0.2-1.1-0.2c-0.4,0-1-0.1-1.7-0.1h-2.6
				V117.5z"/>
		</g>
		<g>
			<path class="st1" d="M489.4,133c-0.4,0-0.8,0-1,0c-0.3,0-0.5-0.1-0.7-0.1c-0.2-0.1-0.4-0.2-0.5-0.3c-0.1-0.1-0.2-0.2-0.2-0.4
				l-2.2-6.2h-10.5l-2.1,6.1c-0.1,0.2-0.1,0.3-0.2,0.4c-0.1,0.1-0.2,0.2-0.4,0.3c-0.2,0.1-0.4,0.1-0.7,0.2c-0.5,0.1-1.5,0.1-2,0
				c-0.3,0-0.6-0.1-0.7-0.3c-0.1-0.1-0.3-0.3-0.3-0.7c0-0.2,0.1-0.5,0.2-0.8l8.9-24.6c0.1-0.2,0.2-0.4,0.3-0.5
				c0.1-0.1,0.3-0.3,0.6-0.3c0.2-0.1,0.4-0.1,0.7-0.1c0.6,0,1.6,0,2.2,0c0.3,0,0.6,0.1,0.8,0.1c0.2,0.1,0.4,0.2,0.6,0.3
				c0.1,0.1,0.2,0.3,0.3,0.5l8.9,24.7c0.1,0.3,0.2,0.6,0.2,0.8c0,0.4-0.1,0.6-0.3,0.7c-0.2,0.1-0.4,0.2-0.7,0.3
				C490.2,133,489.8,133,489.4,133z M475.4,122.4h8.2l-4.1-11.7L475.4,122.4z"/>
		</g>
		<g>
			<path class="st1" d="M502.2,133c-0.3,0-0.6,0-0.9-0.1c-0.3,0-0.5-0.1-0.6-0.1c-0.2-0.1-0.4-0.2-0.5-0.3c-0.1-0.1-0.1-0.3-0.1-0.5
				v-22.6H493c-0.2,0-0.3,0-0.5-0.1c-0.2-0.1-0.3-0.2-0.4-0.4c-0.1-0.1-0.1-0.3-0.2-0.6c0-0.2-0.1-0.5-0.1-0.7c0-0.3,0-0.5,0.1-0.8
				c0-0.2,0.1-0.4,0.2-0.6c0.1-0.2,0.2-0.3,0.4-0.4c0.1-0.1,0.3-0.1,0.5-0.1h18.5c0.2,0,0.3,0,0.5,0.1c0.2,0.1,0.3,0.2,0.4,0.4
				c0.1,0.2,0.1,0.4,0.2,0.6c0,0.2,0,0.5,0,0.7c0,0.3,0,0.5,0,0.7c0,0.2-0.1,0.4-0.2,0.6c-0.1,0.2-0.2,0.3-0.4,0.4
				c-0.2,0.1-0.3,0.1-0.5,0.1h-7.1V132c0,0.2,0,0.4-0.1,0.5c-0.1,0.2-0.3,0.3-0.5,0.3c-0.2,0.1-0.4,0.1-0.6,0.1
				C502.8,133,502.5,133,502.2,133z"/>
		</g>
		<g>
			<path class="st1" d="M521.1,133c-0.3,0-0.6,0-0.9-0.1c-0.3,0-0.5-0.1-0.6-0.1c-0.2-0.1-0.4-0.2-0.5-0.3c-0.1-0.1-0.1-0.3-0.1-0.5
				v-25.5c0-0.2,0.1-0.4,0.2-0.5c0.1-0.1,0.3-0.3,0.5-0.3c0.2-0.1,0.4-0.1,0.6-0.1c0.5-0.1,1.3-0.1,1.8,0c0.3,0,0.5,0.1,0.6,0.1
				c0.2,0.1,0.4,0.2,0.5,0.3c0.1,0.1,0.1,0.3,0.1,0.5V132c0,0.2,0,0.4-0.1,0.5c-0.1,0.2-0.3,0.3-0.5,0.3c-0.2,0.1-0.4,0.1-0.6,0.1
				C521.8,133,521.5,133,521.1,133z"/>
		</g>
		<g>
			<path class="st1" d="M543.4,133.3c-2,0-3.8-0.3-5.3-0.9c-1.5-0.6-2.8-1.5-3.8-2.7c-1-1.2-1.7-2.6-2.2-4.4
				c-0.5-1.7-0.7-3.7-0.7-5.9c0-2.1,0.3-4.1,0.8-5.8c0.5-1.8,1.3-3.3,2.3-4.5c1-1.2,2.4-2.2,3.9-2.9c1.6-0.7,3.4-1,5.5-1
				c2,0,3.8,0.3,5.2,0.9c1.5,0.6,2.8,1.5,3.8,2.7c1,1.2,1.7,2.6,2.2,4.3c0.5,1.7,0.7,3.6,0.7,5.8c0,2.2-0.3,4.2-0.8,5.9
				c-0.5,1.8-1.3,3.3-2.3,4.5c-1,1.3-2.4,2.2-3.9,2.9C547.3,132.9,545.5,133.3,543.4,133.3z M543.8,109c-1.5,0-2.7,0.3-3.7,0.8
				c-1,0.5-1.8,1.3-2.4,2.2c-0.6,0.9-1.1,2-1.3,3.2c-0.3,1.2-0.4,2.6-0.4,3.9c0,1.5,0.1,2.9,0.4,4.2c0.2,1.3,0.7,2.4,1.3,3.3
				c0.6,0.9,1.4,1.6,2.3,2.1c1,0.5,2.2,0.7,3.7,0.7c1.5,0,2.7-0.3,3.7-0.8c1-0.5,1.8-1.3,2.4-2.2c0.6-0.9,1.1-2,1.3-3.3
				c0.3-1.3,0.4-2.6,0.4-4c0-1.5-0.1-2.9-0.4-4.1c-0.3-1.2-0.7-2.3-1.3-3.2c-0.6-0.9-1.4-1.6-2.3-2.1
				C546.5,109.2,545.2,109,543.8,109z"/>
		</g>
		<g>
			<path class="st1" d="M566.3,133c-0.4,0-0.7,0-0.9-0.1c-0.3,0-0.5-0.1-0.6-0.1c-0.2-0.1-0.4-0.2-0.5-0.4c-0.1-0.2-0.1-0.3-0.1-0.5
				v-24.5c0-0.7,0.2-1.2,0.6-1.5c0.4-0.3,0.8-0.4,1.2-0.4h1.7c0.4,0,0.8,0,1.1,0.1c0.3,0.1,0.6,0.2,0.9,0.4c0.2,0.2,0.5,0.4,0.7,0.7
				c0.2,0.3,0.4,0.7,0.7,1.1l6.2,11.6c0.4,0.7,0.8,1.4,1.1,2.1c0.4,0.7,0.7,1.3,1,2c0.3,0.7,0.7,1.3,1,1.9c0.1,0.2,0.2,0.3,0.2,0.5
				c0-0.6,0-1.2,0-1.8c0-1.2,0-2.3,0-3.4v-14.4c0-0.2,0.1-0.3,0.2-0.5c0.1-0.1,0.2-0.3,0.4-0.3c0.2-0.1,0.4-0.1,0.6-0.2
				c0.4-0.1,1.3-0.1,1.8,0c0.3,0,0.5,0.1,0.7,0.2c0.2,0.1,0.3,0.2,0.4,0.3c0.1,0.1,0.2,0.3,0.2,0.5v24.5c0,0.3-0.1,0.6-0.2,0.9
				c-0.1,0.2-0.3,0.4-0.5,0.6c-0.2,0.2-0.4,0.3-0.6,0.3c-0.2,0.1-0.4,0.1-0.7,0.1h-1.2c-0.4,0-0.8,0-1.1-0.1
				c-0.3-0.1-0.6-0.2-0.9-0.5c-0.3-0.2-0.5-0.5-0.8-0.9c-0.3-0.4-0.5-0.8-0.8-1.4l-8.1-15.1c-0.4-0.8-0.9-1.6-1.3-2.5
				c-0.2-0.3-0.3-0.7-0.5-1c0,0.4,0,0.9,0,1.3c0,1,0,2,0,3.1v16c0,0.2,0,0.3-0.1,0.5c-0.1,0.2-0.3,0.3-0.5,0.4
				c-0.2,0.1-0.4,0.1-0.6,0.1C567,133,566.7,133,566.3,133z"/>
		</g>
	</g>
	<g>
		<path class="st0" d="M88.3,90.4V20.2h14.2v70.2H88.3z"/>
		<path class="st0" d="M114.2,90.4V20.2h13.8l28.7,46.8V20.2h13.2v70.2h-14.2l-28.3-45.7v45.7H114.2z"/>
		<path class="st0" d="M181.6,20.2h14.2v38c0,6,0.2,9.9,0.5,11.7c0.6,2.9,2,5.2,4.3,6.9c2.3,1.7,5.4,2.6,9.4,2.6c4,0,7-0.8,9.1-2.5
			c2-1.6,3.3-3.7,3.7-6.1c0.4-2.4,0.6-6.4,0.6-11.9V20.2h14.2v36.8c0,8.4-0.4,14.4-1.1,17.8c-0.8,3.5-2.2,6.4-4.2,8.8
			s-4.8,4.3-8.3,5.7c-3.4,1.4-7.9,2.1-13.5,2.1c-6.7,0-11.8-0.8-15.2-2.3c-3.5-1.5-6.2-3.6-8.2-6c-2-2.5-3.3-5.1-4-7.8
			c-0.9-4-1.4-10-1.4-17.8V20.2z"/>
		<path class="st0" d="M268.4,90.4l-25.1-70.2h15.4l17.8,51.9l17.2-51.9h15l-25.1,70.2H268.4z"/>
		<path class="st0" d="M313.4,90.4V20.2h14.2v70.2H313.4z"/>
		<path class="st0" d="M402.4,90.4H387l-6.1-15.9h-28L347,90.4h-15l27.3-70.2h15L402.4,90.4z M376.3,62.6l-9.7-26l-9.5,26H376.3z"/>
		<path class="st0" d="M408.3,90.4V20.8h14.2v57.8h35.2v11.8H408.3z"/>
		<path class="st0" d="M461.8,20.2H476v38c0,6,0.2,9.9,0.5,11.7c0.6,2.9,2,5.2,4.3,6.9c2.3,1.7,5.4,2.6,9.4,2.6c4,0,7-0.8,9.1-2.5
			c2-1.6,3.3-3.7,3.7-6.1c0.4-2.4,0.6-6.4,0.6-11.9V20.2h14.2v36.8c0,8.4-0.4,14.4-1.1,17.8c-0.8,3.5-2.2,6.4-4.2,8.8
			c-2.1,2.4-4.8,4.3-8.3,5.7c-3.4,1.4-7.9,2.1-13.5,2.1c-6.7,0-11.8-0.8-15.2-2.3c-3.5-1.5-6.2-3.6-8.2-6c-2-2.5-3.3-5.1-4-7.8
			c-0.9-4-1.4-10-1.4-17.8V20.2z"/>
		<path class="st0" d="M529.3,90.4V20.2h14.2v70.2H529.3z"/>
		<path class="st0" d="M570.8,90.4V32.1H550V20.2h55.7v11.9H585v58.3H570.8z"/>
	</g>
</g>
</svg>
