<?xml version="1.0" encoding="utf-8"?>
<!-- Generator: Adobe Illustrator 27.9.0, SVG Export Plug-In . SVG Version: 6.00 Build 0)  -->
<svg version="1.1" id="Layer_1" xmlns="http://www.w3.org/2000/svg" xmlns:xlink="http://www.w3.org/1999/xlink" x="0px" y="0px"
	 viewBox="0 0 800 425" style="enable-background:new 0 0 800 425;" xml:space="preserve">
<style type="text/css">
	.st0{fill:#0456A4;}
	.st1{opacity:0.6;}
	.st2{clip-path:url(#SVGID_00000101082856119109916960000003185048850676514194_);}
	.st3{fill:#FFFFFF;}
</style>
<rect class="st0" width="800" height="425"/>
<g class="st1">
	<defs>
		<rect id="SVGID_1_" x="101.6" class="st1" width="640.6" height="425"/>
	</defs>
	<clipPath id="SVGID_00000040545759158073812600000004473665871688310670_">
		<use xlink:href="#SVGID_1_"  style="overflow:visible;"/>
	</clipPath>
	<g id="_x3C_group_x3E_" style="clip-path:url(#SVGID_00000040545759158073812600000004473665871688310670_);">
		<path class="st3" d="M626.7,331.7c-0.8-1-9.9-3.8-20.8-5.6c-11.1-1.8-25.8,1-25.8,1c-3,0.5,6.6,2.8,8.4,3.5
			c1.8,0.8-3.3-0.3,13.7,7.9c17,8.4,19.8,4.8,24.6,2.3C631.5,338.8,627.5,332.7,626.7,331.7z M622.7,340.3c0,0-2.8,0.8-6.3,0.5
			c-3.8-0.3-8.4-1-9.4-1.3c-2.3-0.3-0.3-2-0.3-2s6.6,0,7.3-0.3s-0.3-1.8,0.5-3.3c0,0,7.3,0.3,8.1,3
			C623.4,339.8,622.7,340.3,622.7,340.3z"/>
		<path class="st3" d="M582.1,334.5c-2.5-1.8-13.2-4.3-13.9-4.6c-4.3-1-10.4-1.5-13.2-1.8c-2.8-0.3-6.3-0.5-10.6-0.3
			s-4.8,2.3-4.8,2.3c-1.3,1.8,0.5,1.8,1.3,2.5c0.8,0.8,15.2,9.9,18.7,11.6c3.3,1.8,9.6,2.8,12.7,2.8s8.1-1.3,11.6-3.8
			C587.7,340.8,584.4,336,582.1,334.5z M578.3,342.8c-1,0.5-12.2,0.5-13.4,0.3s-7.1-4.6-7.1-4.6c2-0.3,11.4-0.5,12.2-0.8
			s-1.3-1.5-1.5-2.3c-0.3-0.8,2.8-0.3,4.3,0.5C574.3,337,579.4,342.3,578.3,342.8z"/>
		<path class="st3" d="M550,343.1c-0.8-0.8-4.3-2.3-5.8-2.8c-1.5-0.5-4.8-1.5-7.9-3.3c-3.3-1.8-5.3-2.3-6.8-3.3
			c-1.8-0.8-4.1-2-6.1-2.5c-2-0.5-6.8,0.5-6.8,0.5c-2.5,2.8,2,6.6,2.5,7.3c0.5,0.8,7.6,6.3,8.4,7.3c0.8,0.8,7.3,3.8,8.1,4.1
			s5.1,0.8,6.3,0.8s3.5-0.3,4.3-0.8c0.8-0.3,2.8-1.3,3.8-1.8C551.5,348.4,550.7,343.8,550,343.1z M544.7,348.1
			c-0.8,0.3-6.3,0.3-7.3,0.3c-0.8,0-4.6-1.3-5.8-2.3c-0.8-0.5-0.3-1.8-0.3-1.8c1.3-0.5,7.3,1,7.3,1l-0.8-1.3l-0.3-1.3
			c0,0,0.8-0.3,3,0.8C542.9,344.6,545.4,347.9,544.7,348.1z"/>
		<path class="st3" d="M521.4,346.6c-0.5-1.3-6.8-7.6-8.4-8.4c-1.5-0.8-7.3-5.8-9.9-6.8c-2.3-0.8-8.1-3.5-11.4-3.5
			c0,0-2.3,0.3-2.5,1.3c-0.3,0.8-0.3,3.3,0.5,4.1s2.8,3.3,3.5,4.3c0.8,1,2,4.3,2.3,5.3c0.3,1,3.8,5.8,4.8,6.6s7.1,4.6,10.9,4.8
			c3.8,0.3,7.1-1,7.9-1.8C520.4,351.4,521.9,347.9,521.4,346.6z M497.6,337.2c0,0-1.8-1.3,0.3-1.3c6.3,0,6.8,2.3,5.8,3.8
			C502.6,341.3,497.6,337.2,497.6,337.2z M512.2,351.4c0,0-13.9-5.6-10.9-7.9l3.8,0.8c0,0,4.3,1.8,5.1,0.8c0.8-1,1.3-2.5,1.3-2.5
			l2.3,2.5l1.3,5.8L512.2,351.4z"/>
		<path class="st3" d="M483.6,329.6c-3.8-3.5-5.3-4.6-6.1-4.8c0,0-4.3-1.5-6.1-1.3s-2.8,3-2.8,3.8s0,6.8-0.3,7.9
			c-0.3,1-0.8,6.3-1.3,7.1c-0.5,0.8-0.8,5.3-0.5,6.3c0.3,1,2.3,5.6,5.6,6.6c3.3,1,7.6,1,9.9,0.3c2.3-0.8,6.6-5.3,7.6-9.1
			S487.2,333.2,483.6,329.6z M472.7,332.9c0.5,0.3,4.3,3.3,5.3,3.3c1-0.3,2.5-3.3,2.5-3.3l1.3,1.8c0,0-1,5.3-2.5,6.1
			c-1.5,0.8-7.3-3.8-7.3-3.8L472.7,332.9z M485.1,344.3c-1.3,5.3-5.6,7.9-5.6,7.9l-9.1-4.8l-0.3-4.6c1,0.3,9.4,2.8,9.4,2.8l3-5.3
			C482.6,340.3,486.2,338.8,485.1,344.3z"/>
		<path class="st3" d="M449.9,322.3c0,0-9.1,0-10.9,0.8c-1.8,0.8-16.7,6.3-18.5,7.9c-1.8,1.5-7.1,6.1-8.6,9.9s-1.5,9.9,0.5,11.6
			c2,1.8,8.4,2.8,11.9,1c3.5-1.8,10.9-10.4,12.2-12.9s9.1-14.4,10.6-15.2c1.5-0.8,2.3-2.3,2.8-2.3
			C450.7,323.1,451,322.8,449.9,322.3z M430.4,344.3c-0.5,1.3-8.9,4.3-10.9,4.3s-2.8-4.8-3-5.3c-0.3-0.8,3-3.8,3-3.8l1.3,0.3
			l-0.5,5.3l7.1-2.5C427.4,342.6,431,343.3,430.4,344.3z M436.3,335.2c-1.3,1-3,1.8-3.8,2c-1.3,0.3-6.3,0.8-6.8,0
			c-0.3-0.8,3-5.6,3-5.6s1.5-0.3,2-0.3h0.5l-1,3.3l4.8-1.8h2.5C437.8,332.7,437.5,334,436.3,335.2z"/>
		<path class="st3" d="M419.6,321.3c0,0-9.1,0.3-13.2,1.3c-4.3,1-11.6,5.3-14.4,6.6c-2.3,1-8.1,3.8-9.4,5.6
			c-1.3,1.8-5.6,7.9-2.8,12.2c2.8,4.3,9.4,6.8,13.9,5.6c3-0.8,7.9-3.5,13.4-9.9c2.8-3,5.6-8.4,8.6-12.2c4.6-5.8,5.3-7.6,5.3-7.6
			S420.8,321.5,419.6,321.3z M395,346.1c-1.5,0.3-8.4,1.3-8.9,0.3c-0.5-1,0.3-7.1,0.3-7.1l3-1.3h0.8l0.8,4.8l9.4-1c0,0,2-0.5,2,0.3
			C402.3,343.1,396.5,345.9,395,346.1z M405.6,335.7c0,0-7.3,1-8.6,1c-1.3,0,0-3.8,0-3.8l3.3-3.3h1l1,3.3h7.3L405.6,335.7z"/>
		<path class="st3" d="M387.7,323.1c-1.3,0-22.8,4.3-25.8,5.1c-2.8,0.8-9.9,5.1-10.4,6.8c-0.8,1.8-4.1,7.9,0.3,9.9
			c4.3,2.3,8.4,1.3,9.4,0.8c1.3-0.3,8.4-4.1,9.1-4.8c0.8-0.8,13.7-12.4,14.7-13.4C386.1,326.4,390.2,322.8,387.7,323.1z
			 M364.4,340.8c-2.3,0-8.6,0.5-8.6,0s-3.5-2.8,2.8-5.8l0.3,2.8l9.9,0.3C368.4,338,366.4,340.8,364.4,340.8z"/>
		<path class="st3" d="M358.8,410.4c-2-7.6-18.5-21-31.1-25.1c-12.7-4.1-21-3.8-23.8-3.5c0,0,14.9,9.1,19.5,12.7
			c4.6,3.8,13.9,12.4,15.7,14.9s7.9,8.4,9.9,8.6C351.4,418.5,360.8,418,358.8,410.4z M332.7,397c-0.8,0-1.5-0.3-2.5-0.5
			c-2.3-0.5-2-1-2-1.3s0.3-0.8,0.3-0.8l1.8-0.3l-0.8-1.3v-1.3c3-0.5,6.3,4.8,6.1,5.3C335.2,397,334,397.3,332.7,397z M354.2,414
			c-0.3,0,0,0.5-1.8,0.3c-1,0-2-0.5-2.8-0.5c-2.3-0.3-4.6-1.5-6.6-3c-1.5-1.3-2.8-2.8-2.8-2.8s-0.3-1,0.5-1c0.3,0,1-0.3,1.5-0.3
			c1.3,0.3,3,1,3.3,1c0.5,0.3,0.5-0.3,0.8-0.5c0.3-0.3,0.3-1.3-0.5-1.8c-0.5-0.5,0-3.3,0-3.3s1.3,0,1.8,0c0.5,0,4.3,4.3,4.8,5.3
			C353.5,408.7,354.5,413.7,354.2,414z"/>
		<path class="st3" d="M337,419.6c-2-3.8-13.2-20.3-27.4-26.3c-13.9-6.1-16-5.1-17.7-5.3c0,0-6.3,0-5.1,3.8c0.5,1.3,1.3,2.5,2.5,3.8
			c1.8,1.5,4.3,2.8,6.8,5.1c2.5,2.3,6.3,8.4,8.9,18.5c1,4.1,2.5,8.1,5.3,11.1c4.1,4.3,10.4,7.1,16.2,6.1
			C337.3,434.2,339,423.6,337,419.6z M307.1,407.9l-4.8-5.1c0.5-0.5,6.6,0,6.6,0l1-2.8l3.5,2c0,0,1.5,7.9,0.5,6.8
			C312.7,407.9,307.1,407.9,307.1,407.9z M327.6,429.9c-0.3-1.8-15.4-5.1-15.4-5.1l-0.8-7.3c2.5,0,10.6,1.8,10.6,1.8l0.8-6.3
			l6.1,3.8C328.6,416.5,327.6,431.5,327.6,429.9z"/>
		<path class="st3" d="M186.3,323.8c-4.3-1-12.9-2.3-20.3-7.6c-7.3-5.1-23.8-10.6-26.8-9.9c-3,0.8-13.4,5.1-11.1,13.7
			c2.3,8.4,10.1,10.9,11.1,11.1c1,0.5,25.8,7.3,42,4.1c16.5-3.3,28.6-7.9,29.1-9.6C210.4,325.6,190.6,324.8,186.3,323.8z M145,320.3
			c0.8,1.3,4.8,10.1,5.8,10.9c1,0.8-6.1-1-7.1-1.8c-1-0.8-8.4-11.9-6.3-13.9c0,0,5.8-3,8.4-2.5c2.5,0.5,5.6,2.3,6.8,2.8
			C153.7,316.2,144.3,319,145,320.3z M172.6,333.4c-1,0-1.5,0.5-2.3,0.5s-6.8-5.6-6.1-6.1c0,0,4.8-3.5,5.8-3.5s3.8,0.5,4.8,0.5
			c0.8,0-2.3,2.3-2,3.5c0.5,1,1.5,2,2.5,3.3C176.4,332.9,173.7,333.4,172.6,333.4z"/>
		<path class="st3" d="M189.9,339.3c-3.5,0-21,1.3-24.6,0.8c-1.8-0.3-14.4-0.8-18.2-2.5c-1.3-0.5-16.5-7.3-20,2.5
			c-3,8.6,3.5,11.6,7.6,13.4c4.1,1.8,17.5,2.5,23.8,1.5c5.1-0.8,18.5-4.1,26.1-6.8c2.3-0.8,5.8-2.3,6.6-2.8
			c4.6-2.5,11.6-6.6,13.2-8.9C204.6,336.5,193.4,339.3,189.9,339.3z M142,345.9c-0.8,0.3,3,5.8,3,5.8s-5.1-0.3-5.8-0.5
			c-0.8-0.3-6.3-8.6-6.3-8.6c1-0.5,6.1-1.5,7.9-1.5c1.8,0,6.8,1.8,6.6,2.3C147.1,344.1,143,345.6,142,345.9z M165.6,350.9
			c-0.8,0-6.8-3.8-6.8-3.8c0.8-0.8,6.6-1.8,6.6-1.8h2.3v0.8l-0.8,1.3l1.8,1.8C168.6,349.4,166.3,350.9,165.6,350.9z"/>
		<path class="st3" d="M724.5,320.8c0,0-8.6-0.5-22.3,2.5c-15.2,3.3-39.5,2.8-47.1,2.3c-6.6-0.5-18-2.8-28.6-5.1
			c-10.6-2.3-21.5-5.6-29.4-7.3c-14.2-3.3-46.3-4.6-55.5-6.1c-9.1-1.5-53.9-1-70.4,0.5c-16.7,1.5-57.7,2.3-69.1,2.3
			s-50.6,0.3-50.6,0.3s-2.5-2.5-8.4-6.6c-5.6-3.5-9.6-5.6-11.4-7.1c-0.8-0.8-2-0.8-2.5-1.8c-1.5-2-1.3-4.8-2.5-7.1
			c-8.1-15.2-17.7-17.2-22.3-18.7c-4.6-1.5-17,1.8-21-5.1c-3.8-6.6-0.5-40,1.8-48.4c1-4.1,3.5-18,5.6-32.2c2-14.4,3.3-28.6,4.8-34.9
			c2.8-12.4,1.3-34.7-1-44.6s-19.8-48.9-24.6-59.5c-6.6-14.4-32.9-61-32.9-61S218.2-50,201.5-61.4s-18.7,2.3-18.7,2.3
			s-2,5.8,3.8,13.2c2,2.3,5.8,4.8,12.9,9.1c14.7,9.1,30.4,26.6,41,43.6c14.7,23,17.5,48.4,20.3,59.8c4.1,15.7,3.3,32.4,4.8,43.8
			c0.8,5.1,5.6,11.4,8.6,19.8c2.8,8.4,4.1,21,4.3,34.7c0,10.1-2.5,31.1-5.3,51.9c-3,22.8-9.6,41.3-14.7,45.6
			c-6.8,5.8-26.6,20.8-33.4,41.8c-6.8,21.3-11.1,49.4-16.2,54.7c-2,2-5.1,4.3-9.1,5.6c-4.6,1.5-10.6,1.3-16.5,0.8
			c2.3-1.3,4.1-2.3,4.8-2.8c3-1.5,22.5-13.9,16-15.4c0,0-6.8,1.3-12.2,3c-5.1,1.8-9.6,3.3-11.6,3.8c-2,0.8-13.4,3.8-16.7,4.3
			c-3.3,0.5-16.2,1.8-20.3,2c-4.1,0.3-11.1,5.8-11.1,7.6c-0.3,1.8-1.8,8.1,5.8,11.6c7.6,3.8,12.4,2.5,18.5,0.5
			c2.5-1,8.4-4.1,14.4-7.6c0.8-0.3,1.5-0.5,2.5-0.5c2-0.5,6.8,1.5,10.9,4.3c-0.8,0-1.5,0.3-2.5,0.5c0,0-24.8,6.8-25.8,11.1
			c-1,4.1-2.5,11.9,2.5,14.7c5.3,2.8,17.2,0.8,21-3c3.5-3.5,11.4-12.2,12.2-13.2c0.3,1,0.5,2,0.8,3c0.3,0.8,0.3,1.8,0.3,2.5
			c-5.1,6.1-9.4,11.4-10.1,12.2c-1.3,1.8-2.3,13.7,6.8,16.7c12.9,4.1,18.5-5.1,20.3-7.1c1.8-2,4.1-14.7,5.3-18.7
			c0.3-1,0.5-2.5,1-4.3c0.3,0.3,0.5,0.3,0.8,0.5c2.5,1.5,4.8,3.8,5.6,5.8l0,0c-1.8,6.1-3.8,12.4-4.8,15.4
			c-2.3,6.3,0.3,14.7,3.8,17.7c3.5,3,10.1,2.5,12.4,2.3c2-0.3,6.8-4.1,10.4-15.2c0.3-1.3,0.5-2.5,0.8-3.8c1.3,0,2.3,0.3,3.5,0.3
			c-0.5,3.8-2.3,21.3,2,24.6c4.8,3.8,13.9,4.3,16,3.8c2.3-0.8,5.1-3.8,6.6-8.1c0.8-2,1-5.8-0.3-9.6c2,0,3.8-1.5,3.8-1.5s1-3-0.5-4.8
			c-1-1.5-4.1-2-4.1-3.3c0-1.8,2.5-1.8,4.8-1.3c1.5,3.5,2.3,7.9,2.3,14.4c-0.3,13.9,7.9,18.5,13.7,18.2c5.8-0.5,10.4-7.6,10.6-15.7
			c0.3-8.1-5.1-25.6-20.3-33.7c-5.6-3-7.3-2.3-8.9-2.5c-2.8-0.5-4.3,0.3-4.3,0.3s-3.5,2.3,1,9.4c0.3,0.5,0.5,0.8,0.8,1.3
			c-3.5-0.5-7.1-1.3-9.1-2c-3.3-1-3.5-2-3.8-4.6c0-1.5,2.3-3.8,3-4.6c2.3-1.5,31.7-12.2,31.7-12.2s23.6-10.1,38.7-31.9
			c15.2-22,24.8-28.1,61-30.9c31.7-2.3,81.5-1.3,92.2,3c7.1,3,26.1,6.3,29.1,6.3c2,0,5.3-1,14.2-2.5c3-0.5,7.3-1,11.6-1.8
			c20-3.5,42.5-3.3,60.5-1c20,2.5,34.7,6.8,37,7.9c4.6,1.5,76.2,13.9,88.4,3.3C739.2,322.6,724.5,320.8,724.5,320.8z M151.4,377.8
			c-0.8,0-13.7-2.8-13.7-4.1c0-1.3,3.5-6.3,4.3-7.1l6.3-0.8l-2.8,6.3l8.1,2l2,0.3C155.7,374.5,152.1,377.8,151.4,377.8z M277.2,319
			c0.3,3,2.8-0.8,3.3-1c0.3-0.3,1.5-2.3,2-1.3c0.5,1-1,4.6-2,5.6c-1,0.8-7.3,5.6-8.1,5.6s-2-12.2-0.8-13.7c0,0,2.5,0,4.3,1
			C277,316,277.2,318,277.2,319z M265.1,315.7c1,0.5,1.3,4.8,1.5,5.3c0,0,0.3-0.3,1.8-0.8c2-0.8,2.3,0.5,0.8,2.8
			c-1.8,2.3-5.1,3.8-5.1,3.8s0,0-1-4.8c-1-4.8,0.5-7.1,0.5-7.1C265.1,315,264.1,315.2,265.1,315.7z M264.1,307.9
			c0-1.8,1.5-5.1,1.5-5.1c1.3,0,1.3,0,1.5,0.3c0.3,0,0.3,1.5,0.5,2.5c0,1,0.8,1.5,0.8,1.5s0.8-0.8,1.8-1c6.3-2,3,3.5-1.8,6.1
			C263.3,315.2,264.1,309.9,264.1,307.9z M268.4,327.1c1.8-0.8,1.5,2.8,1.8,4.1c0,1.3,0.3,0.8,2.5-1.8s4.1-0.3,3.5,0.8
			c-0.8,1.3-7.6,9.4-8.1,8.9s-3-7.1-3.3-8.4C264.6,329.4,268.4,327.1,268.4,327.1z M267.9,279.5c1-1.5,7.1-2.8,7.1-2.8v-0.3
			c1.8,0-0.5,3-3,5.6c-2.5,2.5-3.8,2.5-5.1,2C265.8,283.3,266.9,281,267.9,279.5z M263.8,282.8c1.3,0.3,0.3,3,0.5,4.1
			c0.3,1,1.5,0.8,2.3,0.8c1.5-0.3,1.8-1.8,3-1.3c1.3,0.3-0.8,4.8-5.1,7.1c-3.5,2-3,2.3-4.1-2.8C259.8,285.6,263.8,282.8,263.8,282.8
			z M257,295.7c1.8-2.3,2.5,1.3,2.3,2.8c0,1.5,2,0,2,0s1.8-3.5,4.8-3.3c4.6,0.3-2.8,7.3-6.1,9.9c-3.3,2.5-3.5,2.3-4.1-0.5
			C255.5,300.8,257,295.7,257,295.7z M247.4,375.7c0,0,10.4,2.5,11.6,3.3c1,0.8,3,3,1,4.3c-2,1.3-5.6,0.5-7.1,0
			c-1.3-0.5-3.3-1.8-2.8-1.8s2.3-0.3,2.5-0.3c0.5-0.3-2.3-1-3.3-1.5C248.6,379,245.6,375,247.4,375.7z M245.6,377.3
			c8.1,19.2,2.8,21.5,2.8,21.5l-4.3,2.3c-1.3-6.8-3.3-12.7-3.8-13.9c-0.8-2.3-8.1-11.1-9.4-11.9c-1.3-0.8-4.8-0.8-4.8-0.8
			c-1.3,0.8-1.5,2.8-1,7.1c0,1,0,2.5-0.5,4.8c-0.8-0.5-1.5-1.3-2.5-1.8c-1.8-1.3-3.3-2.3-4.8-3.3c0.5-3.8,0.8-7.1,0.8-8.4
			c0-2.5-0.5-3.8-2.3-4.3s-6.8,5.1-6.8,5.1c-0.3,0-0.3,0.3-0.5,0.5c-2.8-4.3,2.3-7.3,2.3-7.3s9.6-3.8,20.3,0
			C235.4,368.1,243,371.2,245.6,377.3z M238.7,395v3.5c0,0-4.8,5.1-5.3,5.1c-0.8,0-5.3-5.6-5.3-5.6l2-2.3c1.5,0.8,3.5,2.3,3.5,2.3
			l4.1-3.8L238.7,395z M233.7,364.1c0.3,0.8,0,1.8-1.5,1c-1.5-0.8-8.1-2.3-8.4-2.5c-0.3-0.3-1.5-6.6,0.5-5.3
			C224.6,357.5,233.4,363.3,233.7,364.1z M232.2,359.5c0,0.5-1,1.5-2.8-0.3c-1.8-1.8-3.8-4.3-5.3-4.6s-1.8,1.3-1.8,1.8
			c0,0.5-1.5,1.5-1-5.6c0-1.8,1-0.8,1-0.8s2.3,1.5,4.6,4.1C228.9,356.7,232.2,359,232.2,359.5z M221,339c2-0.5,1.3,3.5,2.5,5.3
			c1.3,1.8,3.5,7.6,2.3,6.8c-1.3-0.8-4.6-4.6-5.3-5.1c-0.8-0.3-2,2-3.3,1.3C215.9,346.9,221,339,221,339z M215.4,350.7
			c0.8-0.5-0.3-0.8,1.8-0.5c2,0.3,2.5,4.3,2.8,5.3c0.3,1,2,5.8,1.3,7.1c-0.8,1.3-1.8-1.5-2.8-3.3c-1-1.8-2.5-3-3.3-2.5
			c-0.8,0.5-1.8,2.8-3,2C210.9,357.8,215.4,350.7,215.4,350.7z M175.7,397c-2.5,2.5-8.1,2-9.9,2c-2,0-6.8-3-6.8-3s1-4.6,2.3-6.6
			c1-2,6.8-3,6.8-3l0.3-0.8l-1.3,6.6c0,0,2,1.3,4.1,2C173.9,395.2,177.2,395.5,175.7,397z M185.8,386.9c-1,0.5-8.4,0.8-8.1,0
			c0.3-0.8,1.5-6.3,6.6-9.1l0.5,4.1l3.5-0.3l0.3,1.8C188.6,383.6,186.8,386.6,185.8,386.9z M204.3,413.2c-0.5,0.5-11.9,0.5-13.4,2
			c-1.5,1.3-5.3-7.3-4.8-8.4c0.5-1,3.5-3.8,5.1-4.8c0,0,2.5,7.6,3.5,7.3c1-0.3,12.4-0.8,12.4-0.8S205.1,412.7,204.3,413.2z
			 M209.6,396.3c-2.5,1.3-8.6,3.8-9.1,2.3c-0.5-1.3-1-8.1-0.3-8.6c0.8-0.5,1.5-0.5,2.3-1.5c0,0,0.8,2.3,1.3,3.8
			c0.5,1.3,2.3,0.5,3.3,0c1-0.8,3.8-1,3.8-1S212.2,395,209.6,396.3z M217.5,390.2c-0.3-0.3-0.8-0.5-1.5-0.8c-3-1.5-8.9-3.5-9.6-3.5
			c-1-0.3-4.1-0.8-5.6-0.3c-1.3,0.5-6.6,8.4-6.6,8.4l-1-0.3c0,0-0.3-0.3,0.3-1.3c0.3-0.3,0.3-1,0-2c-0.3-2.3-1-5.8-1.5-6.8
			c-0.3-0.5-0.8-1.3-1.3-2c-1-1.5-2.3-3.5-3.3-4.1c-0.5-0.3-1.3-0.8-2.3-1.5l0,0c-2.3-1.5-5.3-3.3-6.8-4.1c-2-0.8-4.1-1-5.6-1
			c-0.3,0-0.5,0-1,0c-1.5,0.3-5.3,2-5.3,2s-0.3,0.3-0.5-0.8c-0.3-1,2.5-4.8,4.1-5.8c1.5-1,4.3-1,6.1-1c0.5,0,3,0,5.8,0.3
			c4.8,0.3,10.9,0.8,11.6,0.8c1,0,3.8,0.3,7.3-1c3.5-1.3,8.1-5.3,8.1-5.3c1,0.5,0.3,3,1.3,3c0.8-0.3,4.3-0.5,4.3-0.5s1,0.8,0.3,0.8
			s-5.3,3.3-6.3,4.1c-1,1-1.3,4.3-1.3,5.6c0,0.3,0.3,0.8,0.8,1.3c1.3,1.5,4.1,3.3,5.3,4.6c0.5,0.5,2.3,1.8,4.1,3.3l0,0
			c2.3,1.8,5.1,4.1,7.1,5.6c1.3,1,2,1.5,2.3,1.8c1,0.8,1.8,4.1,0.5,5.6c-1.3,1.5-3.3,3-3.3,3s-0.8-0.3-0.5-0.5c0.3-0.5-0.5-2-0.8-3
			l0,0C222.3,393.7,219.7,391.4,217.5,390.2z M229.9,426.9c-1,0.5-6.8-3-9.1-8.1l2.3-0.8l5.3,4.3l8.4-2.5l1.3,1.8
			C238.2,421.3,230.9,426.6,229.9,426.9z M270.4,429.9c-0.8,1.3-9.6,5.8-10.6,5.3c-0.8-0.5-7.9-6.8-8.1-7.9
			c-0.5-0.8,1.5-6.3,1.5-6.3c0.5,1.5,8.4,8.6,9.1,8.4s7.1-4.6,7.9-4.1C270.7,426.1,271.2,428.7,270.4,429.9z M291.7,430.2l4.8-8.1
			c0,0,1,5.6,1,7.1c0,1.5-4.8,10.9-4.8,9.9c0-0.8-9.9-5.8-9.9-5.8v-7.3h0.5C285.3,426.4,291.7,430.2,291.7,430.2z M259.8,403.1
			c0.8,0,9.4,2.3,11.1,2.5c0.5,0,1,0,1.5,0.3c2,0.3,4.8,0.5,7.6,1c3.8,0.5,6.6,3.3,7.3,4.1c0.8,0.5,0.5,7.9-0.3,9.1
			c-0.5,1.3-1,0.3-1-1.3c0-1.5-4.3-5.3-6.6-6.3c-1.3-0.5-2.3-0.5-3.5-0.3c-1,0-2,0.3-3,0.5c-2,0.3-3,0-3.8,1.3
			c-0.8,1.3,2.8,3,3.3,3.5s2,3,1,4.6c-0.5,1-1.5,1.3-2,1.5h-0.3c0,0,0-0.5-1-2c-1.8-2.5-10.6-6.1-13.4-7.1c-2.8-0.8-4.6-1-8.6-2
			c-0.5,0-1-0.3-1.5-0.3c-0.8,0-1.5-0.3-2.3-0.3c-3.5,0-7.6,0.5-9.6,1c-2.5,0.5-7.9,1-9.9,2.3c-2,1.3-2,0.5-2.3-0.3
			c-0.3-0.8,1.3-2.3,2.3-2.8s9.6-5.1,10.4-5.1c0.8-0.3,1.3-0.5,6.8-2.5c0.5-0.3,1.3-0.5,1.8-0.8c4.3-2.3,6.8-6.6,7.1-7.3l-0.3,0.5
			c0-0.3-0.3-1.8,0-1.5c1,0.3,7.3,0,7.3,0s-1,1-1.8,2.3C255.2,400.6,259,402.8,259.8,403.1z M264.6,388.4c-1,1-2.5,2.8-4.1,2.8
			s-2-0.3-2-0.3s2-2.5,1.3-2.5s-5.1-0.3-6.3,0c-1.3,0-3.5-0.3-2-1c0,0,8.1-2.3,10.1-2C263.6,385.6,265.6,387.4,264.6,388.4z
			 M272.4,386.4c-1.5,0.5-5.8,1-5.8,1c-0.5-0.3-0.8-0.8,0-1.3c0.8-0.5,1.8-0.8,1.5-1c-0.8-0.5-7.1-2.8-4.6-3.3c0,0,8.6,0.3,9.6,1.3
			C273.9,384.1,273.2,386.1,272.4,386.4z M283.3,382.6c-2.5,0.3-6.6,2.8-7.9,3c-1.3,0.3,0-3,0-3v-0.3c1,0,8.4-0.8,9.9-0.8
			C286.9,381.6,285.8,382.3,283.3,382.6z M281.5,298.5c0.3-1.5,2-15.2,2-15.2l3.8,1c0,0,1,0.3,7.1,6.1c6.1,5.6,5.1,10.1,2,12.4
			c-2.3,1.8-6.1,2.3-8.4,2.3C282.8,304.3,281.3,300,281.5,298.5z M301.3,332.7c0-0.5-0.3-1.8-0.5-3.8c-0.3-2-3.3-9.4-4.3-10.4
			c-1-1-4.3-4.1-5.1-6.3c-0.8-2.3,0.3-3,1.3-3.5c0.8-0.5,6.6-5.3,7.9-6.6c1.3-1.3,6.1-3,7.6-3c1.8,0,3.3,1.5,4.1,2
			c0.8,0.5,0.8-0.5,1.3-0.8s7.3-6.8,7.3-6.8c0.8-0.3,0.8,0,1.3,1.8c0.5,1.5-0.8,10.4-1.3,11.1c-0.5,1-2.5,1-3.3,1.3s-1.5,0-1.3,1.8
			c0.3,1.8-1.3,7.9-1.3,8.6c0,0.8-1.5,3.5-2.3,3.5c-0.8,0-0.5-1-0.8-1.5c-0.3-0.5-0.8-0.3-1.5,0.5c-0.8,0.8-5.1,7.3-6.6,9.9
			C302.3,332.9,301.3,333.2,301.3,332.7z M313.7,332.9c-0.3,0.8-3,5.3-5.1,7.3c-1.8,2-1.3-1.5-0.5-2.5s0.5-3,1.3-7.3
			c0.5-4.1,2.3-4.8,2.3-4.8C313.2,326.9,314,332.2,313.7,332.9z M317.8,328.4c-1.8,2.3-2.5,2.8-2.8,1.5c-0.3-1.3-2.3-6.3-2.3-6.3
			c1-1.5,4.1,0.3,4.6-0.3c0.5-0.8,5.3-5.8,6.3-5.3C324.3,318.5,319.5,326.1,317.8,328.4z M325.1,313.7c0.3,3.8-1.3,1.8-2.5,0
			c-1.5-1.5-1-2.5-0.3-5.1c0.8-2.5,4.6-8.6,4.6-8.6c1,0.8-0.3,4.1-0.5,5.1C326.1,305.8,324.8,309.6,325.1,313.7z M330.7,312.4
			c-1.3,0-3.3-4.8-3.5-6.6c-0.3-2,1.3-5.6,1.3-5.6c1.5,0.3,1.5,4.1,2.8,5.6c1.3,1.5,3.8,2.8,3.5,3.5
			C334.5,310.1,331.9,312.7,330.7,312.4z"/>
		<path class="st3" d="M285.1,285.1c0,0-3,14.7,0.8,16.7c4.1,2,8.9,0.8,9.9-0.8C296.7,299.5,297,290.1,285.1,285.1z M295,300
			c-0.5,0.5-4.6,1.5-7.9-1c-3-2.5-0.8-10.1-0.8-10.1C293.2,290.6,295.5,299.5,295,300z"/>
		<path class="st3" d="M307.6,320.3c-2,2.5-5.6,1.3-6.8,0c-1-1-6.6-7.1-6.6-7.1s-1.8-3-0.3-3c2.8,0.3,4.3-0.5,6.1-1
			c3.3-1,5.6-2.3,5.6-2.3c0.5,1-0.5,1.3-1.3,1.5c-0.5,0.3-0.8,1.8,0,3c0.5,0.8,3.8,2.8,4.8,3.5C310.2,315.7,309.7,317.7,307.6,320.3
			z"/>
		<path class="st3" d="M320,299.5c-0.5,0-4.6,3.8-4.6,4.6s-0.8,1.3-0.8,0.8c0-0.5-0.5-1-1-1.8c-0.5-0.8-0.8-1,0.3-1.3
			c1-0.3,6.1-5.3,6.1-5.3C321.3,297.2,320.5,299.5,320,299.5z"/>
		<path class="st3" d="M241,17.4c-0.8-2.8-16.5-24.8-19.5-27.4s-14.4-13.9-20-18.2c-5.6-4.3-12.2-5.1-14.7-5.1c-2.3,0-6.6,1-8.1,4.1
			c-0.8,1.8-1.8,3-2.5,4.8c-2.8,8.9,7.3,14.7,9.6,16c2.8,1.3,21.5,10.4,24.6,11.4s23.8,18.7,24.6,20.5c0.8,1.8,6.1,2.8,7.3,1.5
			C243.6,24,241.5,20.2,241,17.4z M198.5-7.9c-0.5,1.3-8.1-2.3-9.6-2.8c-1.3-0.5-5.6-10.9-6.3-11.6c-0.8-0.8,5.8-3.8,5.8-3.8
			c4.1,0.5,3.5,0.5,5.8,1.3c2.3,0.8,2.3,2,2,3c-0.3,1-3.8,2-3.8,2S199-9.4,198.5-7.9z M220.3,4.2c0,0-3.5,1-6.1-10.6
			c0,0,5.3-1.3,6.6-0.3c1.3,1,3,5.1,3,5.1l-4.1,0.3L220.3,4.2z"/>
		<path class="st3" d="M250.1,48c-0.3-1-12.9-17.5-15.4-20c-3.3-3.3-18.2-15.4-20.3-16.5c-2-1-12.4-7.6-19.5-9.9
			c-7.1-2.3-12.7,0.8-12.7,0.8c-11.1,9.9,1.3,22.8,15.7,24.1c14.2,1.3,17,4.6,23,6.6s25.6,20.3,25.8,21.3c0.3,1,2,3,4.1,2
			C252.9,55.4,250.4,49.1,250.1,48z M196.5,22.2c-3-1-11.1-11.4-11.1-12.4c0-0.8,6.3-2,6.3-2c4.1,0.3,7.3,2,7.3,2s-2.3,1-3.3,1.3
			c-1,0.3,8.9,11.6,8.9,11.6S199.5,23.5,196.5,22.2z M223.8,31.6c-0.5-1-2.8-3.8-1.3-5.3l6.6,0.8c0,0-2.3,1.3-1.8,2.3
			c0.5,0.8,2,3.8,2,3.8S224.3,32.6,223.8,31.6z"/>
		<path class="st3" d="M250.1,65.5c-1.3-0.5-17.2-17.2-23.6-21.3c-6.3-4.1-25.1-12.4-28.6-12.7c-3.5-0.3-9.6-0.8-13.9,1
			c0,0-4.1,3-4.1,7.6c-0.3,4.6,2,10.9,4.3,12.9c2.3,2,7.3,5.3,9.9,5.6c2.5,0.3,17.2,0.3,20,0.5c2.8,0.3,18.2,5.3,20,6.3
			c1.8,1,14.7,8.6,15.7,9.9c1,1.3,5.1,4.3,5.6,1.3C256,73.6,251.4,66,250.1,65.5z M210.1,53.9c-0.8,0.5-6.8-0.5-9.4-1
			c-2.5-0.5-11.4-8.4-12.7-9.6c-1.3-1.3,6.6-5.1,6.6-5.1c5.1-0.3,10.1,1,10.6,2.3c0.5,1-0.8,0.8-1.5,1c-0.8,0.3-1.3,2.8-2.3,3.5
			C201,45.8,210.9,53.4,210.1,53.9z M227.9,60.2c-1-0.3-5.8-6.3-6.6-7.1c-0.8-0.8,4.1-3,4.1-3c2.8-0.3,5.8,1.8,5.8,1.8l-0.3,1.3
			l-2.5,1l3.8,5.8C232.2,59.9,228.9,60.4,227.9,60.2z"/>
		<path class="st3" d="M249.9,82.5c-3.3-2.8-13.4-10.6-18.5-12.7c-6.3-2.5-22.5-5.3-22.5-5.3s-11.6-2.8-17,6.1
			c-5.3,8.9,4.1,12.9,5.8,13.2c1.8,0.3,10.4-0.3,12.4-0.5s10.9-0.3,13.9,0.3c3.3,0.5,8.4,2.8,10.4,3.5c2,0.8,9.9,4.8,10.6,5.3
			c0.8,0.5-0.5-0.8,5.6,3.5c6.3,4.6,6.6-0.3,6.6-1.5C257.2,92.9,252.2,84.3,249.9,82.5z M210.6,79.4c-5.6,0-11.9-3.8-12.7-4.8
			c-0.5-1,2.8-4.8,2.8-4.8l3-0.5c3.3-0.5,5.8,2.3,5.8,2.3l-3,2c0,0,0.3,1.8,2,3.3C210.1,77.9,212.2,79.4,210.6,79.4z M237.2,78.7
			l-2.5,0.5c0,0,3,5.8,2,4.6c-1-1-2.3-0.8-4.8-1.8c-3-0.5-4.1-3.5-4.1-3.5l4.6-2.8c2,0,4.8,1.3,4.8,1.3V78.7z"/>
		<path class="st3" d="M261,109.6c-1.3-0.8-12.9-9.6-14.9-10.9c-2-1-12.9-7.9-16-8.9c-3-0.8-16-3-20-2.5c-4.1,0.5-3.8,0.3-5.6,0.8
			c0,0-5.6,4.1-5.6,6.1c0,2-0.5,5.3,1.5,7.3c2,2,4.6,4.1,10.1,4.8c5.3,0.8,17,0.3,18.7,0.3c2,0,17,1.5,19.5,2c2.3,0.5,6.3,2,8.9,2.8
			c2.3,0.8,4.1,1.5,4.8,1.3C263.3,112.4,262.3,110.3,261,109.6z M212.9,103.2c-1.3-0.3-8.1-2.5-6.3-4.3c2-2,5.6-4.3,7.3-5.3h4.3
			l-0.3,1.5l-3.3,3c0,0,7.1,3.3,7.6,4.3C223,103.5,214.2,103.5,212.9,103.2z M233.4,99.4c0.5-2.8,1.5-1,2.5-1.3c0,0,3.5,0.8,4.3,1.3
			s-0.5,2,0,2.8c0.5,0.8,0.8,2.3,1.3,2.8C242,105.3,232.4,103.5,233.4,99.4z"/>
		<path class="st3" d="M261.8,120c-3-2.5-11.4-7.6-32.7-8.4c0,0-13.4-2.3-19.5,2.3s-1.8,10.4-1,11.4c0.5,0.8,8.1,8.4,25.1,7.6
			c16.7-0.5,25.8-3.5,28.4-5.8C264.8,124.8,265.1,122.2,261.8,120z M222.3,128.1c-1.3-0.5-10.1-4.3-9.6-5.8c0.5-1.3,5.1-6.6,6.3-6.6
			l0.3,0.8l6.8,1.8c0,0-3.5,3.3-2.5,4.1c1,0.8,6.1,3.8,6.3,4.8C230.1,128.3,223.5,128.6,222.3,128.1z M249.4,126.8
			c-3.8-0.3-11.1-1.3-10.6-3.5c0.5-2.3,6.3-4.1,6.3-4.1v-0.8c3.3,0,0,3.8,0,3.8S253.2,127.3,249.4,126.8z"/>
		<path class="st3" d="M268.6,132.6c-1.5-2.3-4.1-0.5-4.1-0.5s-3,0.5-5.1,1.8c-2,1.3-9.4,3.5-11.4,3.8c-2,0.3-5.3,1-8.9,1
			c-3.5-0.3-13.4,0-16-0.5c-2.5-0.5-7.6,0.5-7.9,2.8c-0.3,2.3-0.3,9.4,6.3,12.9c3.8,2,7.6,3.3,10.4,3.5c1.8,0,7.1,0.3,12.9-1.3
			c8.6-2.3,18.2-10.1,19-11.1S270.9,135.9,268.6,132.6z M229.1,152.9c-2.3-0.3-7.3-7.9-7.3-7.9c0-0.8,3.5-1.5,3.5-1.5
			s4.1-0.5,5.1-0.5s3,2.8,3,2.8v1l-2.3,0.3l0.5,1l4.1,4.3C235.4,152.9,231.4,153.1,229.1,152.9z M253.4,149.8c-1,0.5-5.3,0-5.8-0.3
			c-0.3-0.3-1.3-0.3-1.8-0.8c-0.5-0.5-0.5-1.3-0.5-1.8c0-1,5.1-4.6,5.1-4.6c0.5,0,0.5-0.3,1,0c0.5,0.3-0.5,4.1-0.5,4.1l4.3,0.8
			C255.5,147.1,254.2,149.3,253.4,149.8z"/>
		<path class="st3" d="M267.9,148.3c0,0-6.1,4.1-7.6,4.8c-1.5,0.8-6.3,3.5-7.9,4.1c-1.5,0.5-6.8,2.3-9.1,2.5
			c-2.3,0.3-10.1,1.3-11.9,1.5c-1.8,0.3-8.4,1.5-9.6,5.3c-1.3,4.1-1.3,7.1,0.3,9.1c1.5,2,4.8,6.1,12.7,5.1c7.6-1,15.2-4.6,17.2-6.3
			c2-1.5,11.4-11.1,12.7-13.9s4.3-9.9,4.6-11.4C269.4,147.8,269.1,148.3,267.9,148.3z M241,175.7c-4.8,2.8-4.8,1.5-5.8,1.5
			c-0.8-0.3-7.1-2.8-7.9-3.8c-0.5-1,4.1-5.8,4.1-5.8h1c1.8-1,5.1-1.5,5.1-1.5l0.5,1l-2.8,3.5l6.1,3.5
			C241.3,174.4,243.3,174.4,241,175.7z M255.5,167.3c-0.3,0.5-0.8,1.5-1.3,2c-0.5,0.8-2.5,0.3-4.3,0.5c-0.5,0-0.8,0.3-1.8-0.8
			l4.6-6.1c1-0.5,2,0.3,2,0.3l-1.5,2.5l2.8,0.3C256,166.1,255.7,166.6,255.5,167.3z"/>
		<path class="st3" d="M272.2,168.3c-0.5-3.3,0.3-2.5-1.5-2.5c-1.5,0-2.3-0.3-4.1,1.3c-1.5,1.5-3.5,4.6-5.3,6.3
			c-1.8,1.5-4.6,4.3-7.3,6.1c-2.8,2-6.8,4.1-9.1,4.6c-2.3,0.5-11.9,3-13.4,3.8c-1.5,0.8-6.3,5.8-7.1,10.6
			c-0.8,4.8,2.8,10.1,5.6,11.1c2.8,1,8.4,1,11.6-1.3c3.5-2.3,11.4-9.4,13.4-11.1c2-1.8,9.1-11.4,12.2-16.2
			C270.1,176.2,272.4,171.9,272.2,168.3z M243,203.3c-0.5,0-11.9,0.3-11.6-0.8c0.3-1,3-9.4,3.8-9.9s2-0.5,2.8-1l4.1-0.3
			c0,0-0.8,1.5-1.5,3c-0.8,1.3-1,2-1,2.3c0.3,0.5,1.5,0.8,2.5,1.3s3.8,1,4.3,1c0.5,0,1,0.5,1,0.5S243.6,203.3,243,203.3z
			 M262.3,184.3c-0.5,0.8-1.3,2-2.3,2.8c-1.3,1.3-3.3,2-4.6,2c-1.8,0-1.8,0-1.8-1c0-1,2.3-4.6,2.3-4.6l1.5-2.3h0.5
			c2-0.5,1.3,0.8,1.3,0.8l-0.3,1.5C259.3,183.8,263.3,182.5,262.3,184.3z"/>
		<path class="st3" d="M266.6,191.9c0,0-2.3,1.5-3.3,3c-1,1.5-6.8,6.3-7.9,8.4c-1,2-4.8,5.3-6.3,6.1c-1.5,1-7.9,4.6-10.1,5.3
			c-2,0.8-8.9,6.1-9.4,7.1c-0.5,1-4.6,7.9-0.8,10.9c3.8,2.8,5.3,3,6.6,2.8c1.3-0.3,6.3-0.3,10.6-3.8c4.3-3.5,11.6-11.4,12.9-13.9
			c1.3-2.5,7.9-12.2,9.6-23C269.4,189.9,266.6,191.9,266.6,191.9z M247.4,226.3c-0.5,0.8-3.8,2.5-4.6,2.8c-0.8,0.3-7.3,0.3-7.3,0.3
			s1-8.9,1.5-8.9c0.5-0.3,2.3-1.3,5.1-0.3c0,0-1,4.8-0.5,5.1c0.5,0.3,5.6,0.3,5.6,0.3S248.1,225.6,247.4,226.3z M257.7,214.7
			c-1.5,1.3-3.3,2.5-3.5,1.8c-0.5-0.8,0-4.6,0-4.6l3-2.8c1.3,0.5,0.3,2.8,0.3,2.8l2-0.3C259.3,211.9,259.3,213.4,257.7,214.7z"/>
		<path class="st3" d="M266.6,214.9c0,0-4.6,4.1-5.3,5.6s-3.5,5.6-4.1,6.6c-0.5,1-4.1,4.8-5.6,6.3c-1.5,1.5-4.6,4.1-6.3,4.8
			c-2,0.8-9.6,6.6-10.1,7.1c-0.5,0.5-4.1,5.8-4.6,7.9c-0.5,2-1,6.6-0.3,7.9c1,1.3,4.3,4.8,7.6,4.6c3.3-0.3,7.1-1.5,9.4-3
			c2.3-1.5,6.1-5.6,9.6-12.2c3.5-6.6,7.6-14.2,8.1-17.2c0.5-3,3.8-14.7,3.5-16C268.1,215.9,268.1,214.2,266.6,214.9z M250.4,252.7
			c-0.5,0.8-1,2.5-2,3.3c-1.8,1.5-4.3,1.8-4.3,1.8l-6.3,0.8l0.5-8.9c0.5-0.3,2.3-2.8,2.3-2.8l3-0.3l0.3,6.1l-0.3,0.5l4.6-1.5
			C248.1,251.6,251.9,250.4,250.4,252.7z M253.4,245.1c-0.8,0.5-3.8,1.5-4.6,1.5s-0.5-3.3-0.5-3.3l2.8-3.5c1,0,2,0,2,0l-0.3,2
			l3.3-0.5C256.2,241.3,254.2,244.6,253.4,245.1z"/>
		<path class="st3" d="M462.9,330.2c-0.3-4.3-0.5-7.1-2-6.8c0,0-7.6,3-8.4,3.3c-0.8,0.3-4.8,3.8-5.3,4.3c-0.8,0.8-5.8,7.3-6.1,8.1
			c-0.3,0.8-1.8,7.1-1.8,9.6c0,2.5,2.8,6.1,4.3,6.3s4.3,0.5,6.6,0c2.3-0.5,9.4-6.6,10.1-9.1C461.1,343.6,463.1,334.5,462.9,330.2z
			 M455,347.4c-1.5,1.8-7.6,4.8-8.9,5.1c-1.3,0.3-2.8-5.6-2.8-5.6l0.8-3.3l1.5-0.3c2,1.3,2.3,4.1,2.8,4.1c0.8,0,2.3-1.5,5.3-3
			C457,342.8,456.5,345.3,455,347.4z M453.7,340.3c-1,1-3.5,0.8-3.5,0.8v-5.8l2-0.5c1,0.8,0.3,2.3,0.3,2.3l3.8-1.8l2.8-0.8
			C459.1,334.2,454.8,339.3,453.7,340.3z"/>
	</g>
</g>
</svg>
